<svg width="116" height="116" viewBox="0 0 116 116" fill="none" xmlns="http://www.w3.org/2000/svg">
<g opacity="0.48">
<g opacity="0.16">
<ellipse cx="1.70589" cy="1.70638" rx="1.70589" ry="1.70589" fill="#FFC53F"/>
<ellipse cx="11.9401" cy="1.70589" rx="1.70589" ry="1.70589" fill="#FFC53F"/>
<ellipse cx="22.1763" cy="1.70589" rx="1.70589" ry="1.70589" fill="#FFC53F"/>
<ellipse cx="32.4115" cy="1.70589" rx="1.70589" ry="1.70589" fill="#FFC53F"/>
<ellipse cx="42.6477" cy="1.70589" rx="1.70589" ry="1.70589" fill="#FFC53F"/>
<ellipse cx="52.8819" cy="1.70589" rx="1.70589" ry="1.70589" fill="#FFC53F"/>
<ellipse cx="63.1171" cy="1.70589" rx="1.70589" ry="1.70589" fill="#FFC53F"/>
<ellipse cx="73.3533" cy="1.70589" rx="1.70589" ry="1.70589" fill="#FFC53F"/>
<ellipse cx="83.5885" cy="1.70589" rx="1.70589" ry="1.70589" fill="#FFC53F"/>
<ellipse cx="93.8247" cy="1.70589" rx="1.70589" ry="1.70589" fill="#FFC53F"/>
<ellipse cx="104.059" cy="1.70589" rx="1.70589" ry="1.70589" fill="#FFC53F"/>
<ellipse cx="114.294" cy="1.70589" rx="1.70589" ry="1.70589" fill="#FFC53F"/>
<ellipse cx="1.70589" cy="11.9417" rx="1.70589" ry="1.70589" fill="#FFC53F"/>
<ellipse cx="11.9401" cy="11.9417" rx="1.70589" ry="1.70589" fill="#FFC53F"/>
<ellipse cx="22.1763" cy="11.9417" rx="1.70589" ry="1.70589" fill="#FFC53F"/>
<ellipse cx="32.4115" cy="11.9417" rx="1.70589" ry="1.70589" fill="#FFC53F"/>
<ellipse cx="42.6477" cy="11.9417" rx="1.70589" ry="1.70589" fill="#FFC53F"/>
<ellipse cx="52.8819" cy="11.9417" rx="1.70589" ry="1.70589" fill="#FFC53F"/>
<ellipse cx="63.1171" cy="11.9417" rx="1.70589" ry="1.70589" fill="#FFC53F"/>
<ellipse cx="73.3533" cy="11.9417" rx="1.70589" ry="1.70589" fill="#FFC53F"/>
<ellipse cx="83.5885" cy="11.9417" rx="1.70589" ry="1.70589" fill="#FFC53F"/>
<ellipse cx="93.8247" cy="11.9417" rx="1.70589" ry="1.70589" fill="#FFC53F"/>
<ellipse cx="104.059" cy="11.9417" rx="1.70589" ry="1.70589" fill="#FFC53F"/>
<ellipse cx="114.294" cy="11.9417" rx="1.70589" ry="1.70589" fill="#FFC53F"/>
<ellipse cx="1.70589" cy="22.1771" rx="1.70589" ry="1.70589" fill="#FFC53F"/>
<ellipse cx="11.9401" cy="22.1771" rx="1.70589" ry="1.70589" fill="#FFC53F"/>
<ellipse cx="22.1763" cy="22.1771" rx="1.70589" ry="1.70589" fill="#FFC53F"/>
<ellipse cx="32.4115" cy="22.1771" rx="1.70589" ry="1.70589" fill="#FFC53F"/>
<ellipse cx="42.6477" cy="22.1771" rx="1.70589" ry="1.70589" fill="#FFC53F"/>
<ellipse cx="52.8819" cy="22.1771" rx="1.70589" ry="1.70589" fill="#FFC53F"/>
<ellipse cx="63.1171" cy="22.1771" rx="1.70589" ry="1.70589" fill="#FFC53F"/>
<ellipse cx="73.3533" cy="22.1771" rx="1.70589" ry="1.70589" fill="#FFC53F"/>
<ellipse cx="83.5885" cy="22.1771" rx="1.70589" ry="1.70589" fill="#FFC53F"/>
<ellipse cx="93.8247" cy="22.1771" rx="1.70589" ry="1.70589" fill="#FFC53F"/>
<ellipse cx="104.059" cy="22.1771" rx="1.70589" ry="1.70589" fill="#FFC53F"/>
<ellipse cx="114.294" cy="22.1771" rx="1.70589" ry="1.70589" fill="#FFC53F"/>
<ellipse cx="1.70589" cy="32.4134" rx="1.70589" ry="1.70589" fill="#FFC53F"/>
<ellipse cx="11.9401" cy="32.4119" rx="1.70589" ry="1.70589" fill="#FFC53F"/>
<ellipse cx="22.1763" cy="32.4119" rx="1.70589" ry="1.70589" fill="#FFC53F"/>
<ellipse cx="32.4115" cy="32.4119" rx="1.70589" ry="1.70589" fill="#FFC53F"/>
<ellipse cx="42.6477" cy="32.4119" rx="1.70589" ry="1.70589" fill="#FFC53F"/>
<ellipse cx="52.8819" cy="32.4119" rx="1.70589" ry="1.70589" fill="#FFC53F"/>
<ellipse cx="63.1171" cy="32.4119" rx="1.70589" ry="1.70589" fill="#FFC53F"/>
<ellipse cx="73.3533" cy="32.4119" rx="1.70589" ry="1.70589" fill="#FFC53F"/>
<ellipse cx="83.5885" cy="32.4119" rx="1.70589" ry="1.70589" fill="#FFC53F"/>
<ellipse cx="93.8247" cy="32.4119" rx="1.70589" ry="1.70589" fill="#FFC53F"/>
<ellipse cx="104.059" cy="32.4119" rx="1.70589" ry="1.70589" fill="#FFC53F"/>
<ellipse cx="114.294" cy="32.4119" rx="1.70589" ry="1.70589" fill="#FFC53F"/>
<ellipse cx="1.70589" cy="42.6473" rx="1.70589" ry="1.70589" fill="#FFC53F"/>
<ellipse cx="11.9401" cy="42.6473" rx="1.70589" ry="1.70589" fill="#FFC53F"/>
<ellipse cx="22.1763" cy="42.6473" rx="1.70589" ry="1.70589" fill="#FFC53F"/>
<ellipse cx="32.4115" cy="42.6473" rx="1.70589" ry="1.70589" fill="#FFC53F"/>
<ellipse cx="42.6477" cy="42.6473" rx="1.70589" ry="1.70589" fill="#FFC53F"/>
<ellipse cx="52.8819" cy="42.6473" rx="1.70589" ry="1.70589" fill="#FFC53F"/>
<ellipse cx="63.1171" cy="42.6473" rx="1.70589" ry="1.70589" fill="#FFC53F"/>
<ellipse cx="73.3533" cy="42.6473" rx="1.70589" ry="1.70589" fill="#FFC53F"/>
<ellipse cx="83.5885" cy="42.6473" rx="1.70589" ry="1.70589" fill="#FFC53F"/>
<ellipse cx="93.8247" cy="42.6473" rx="1.70589" ry="1.70589" fill="#FFC53F"/>
<ellipse cx="104.059" cy="42.6473" rx="1.70589" ry="1.70589" fill="#FFC53F"/>
<ellipse cx="114.294" cy="42.6473" rx="1.70589" ry="1.70589" fill="#FFC53F"/>
<ellipse cx="1.70589" cy="52.8826" rx="1.70589" ry="1.70589" fill="#FFC53F"/>
<ellipse cx="11.9401" cy="52.8826" rx="1.70589" ry="1.70589" fill="#FFC53F"/>
<ellipse cx="22.1763" cy="52.8826" rx="1.70589" ry="1.70589" fill="#FFC53F"/>
<ellipse cx="32.4115" cy="52.8826" rx="1.70589" ry="1.70589" fill="#FFC53F"/>
<ellipse cx="42.6477" cy="52.8826" rx="1.70589" ry="1.70589" fill="#FFC53F"/>
<ellipse cx="52.8819" cy="52.8826" rx="1.70589" ry="1.70589" fill="#FFC53F"/>
<ellipse cx="63.1171" cy="52.8826" rx="1.70589" ry="1.70589" fill="#FFC53F"/>
<ellipse cx="73.3533" cy="52.8826" rx="1.70589" ry="1.70589" fill="#FFC53F"/>
<ellipse cx="83.5885" cy="52.8826" rx="1.70589" ry="1.70589" fill="#FFC53F"/>
<ellipse cx="93.8247" cy="52.8826" rx="1.70589" ry="1.70589" fill="#FFC53F"/>
<ellipse cx="104.059" cy="52.8826" rx="1.70589" ry="1.70589" fill="#FFC53F"/>
<ellipse cx="114.294" cy="52.8826" rx="1.70589" ry="1.70589" fill="#FFC53F"/>
<ellipse cx="1.70589" cy="63.118" rx="1.70589" ry="1.70589" fill="#FFC53F"/>
<ellipse cx="11.9401" cy="63.118" rx="1.70589" ry="1.70589" fill="#FFC53F"/>
<ellipse cx="22.1763" cy="63.118" rx="1.70589" ry="1.70589" fill="#FFC53F"/>
<ellipse cx="32.4115" cy="63.118" rx="1.70589" ry="1.70589" fill="#FFC53F"/>
<ellipse cx="42.6477" cy="63.118" rx="1.70589" ry="1.70589" fill="#FFC53F"/>
<ellipse cx="52.8819" cy="63.118" rx="1.70589" ry="1.70589" fill="#FFC53F"/>
<ellipse cx="63.1171" cy="63.118" rx="1.70589" ry="1.70589" fill="#FFC53F"/>
<ellipse cx="73.3533" cy="63.118" rx="1.70589" ry="1.70589" fill="#FFC53F"/>
<ellipse cx="83.5885" cy="63.118" rx="1.70589" ry="1.70589" fill="#FFC53F"/>
<ellipse cx="93.8247" cy="63.118" rx="1.70589" ry="1.70589" fill="#FFC53F"/>
<ellipse cx="104.059" cy="63.118" rx="1.70589" ry="1.70589" fill="#FFC53F"/>
<ellipse cx="114.294" cy="63.118" rx="1.70589" ry="1.70589" fill="#FFC53F"/>
<ellipse cx="1.70589" cy="73.3538" rx="1.70589" ry="1.70589" fill="#FFC53F"/>
<ellipse cx="11.9401" cy="73.3533" rx="1.70589" ry="1.70589" fill="#FFC53F"/>
<ellipse cx="22.1763" cy="73.3533" rx="1.70589" ry="1.70589" fill="#FFC53F"/>
<ellipse cx="32.4115" cy="73.3533" rx="1.70589" ry="1.70589" fill="#FFC53F"/>
<ellipse cx="42.6477" cy="73.3533" rx="1.70589" ry="1.70589" fill="#FFC53F"/>
<ellipse cx="52.8819" cy="73.3533" rx="1.70589" ry="1.70589" fill="#FFC53F"/>
<ellipse cx="63.1171" cy="73.3533" rx="1.70589" ry="1.70589" fill="#FFC53F"/>
<ellipse cx="73.3533" cy="73.3533" rx="1.70589" ry="1.70589" fill="#FFC53F"/>
<ellipse cx="83.5885" cy="73.3533" rx="1.70589" ry="1.70589" fill="#FFC53F"/>
<ellipse cx="93.8247" cy="73.3533" rx="1.70589" ry="1.70589" fill="#FFC53F"/>
<ellipse cx="104.059" cy="73.3533" rx="1.70589" ry="1.70589" fill="#FFC53F"/>
<ellipse cx="114.294" cy="73.3533" rx="1.70589" ry="1.70589" fill="#FFC53F"/>
<ellipse cx="1.70589" cy="83.5887" rx="1.70589" ry="1.70589" fill="#FFC53F"/>
<ellipse cx="11.9401" cy="83.5887" rx="1.70589" ry="1.70589" fill="#FFC53F"/>
<ellipse cx="22.1763" cy="83.5887" rx="1.70589" ry="1.70589" fill="#FFC53F"/>
<ellipse cx="32.4115" cy="83.5887" rx="1.70589" ry="1.70589" fill="#FFC53F"/>
<ellipse cx="42.6477" cy="83.5887" rx="1.70589" ry="1.70589" fill="#FFC53F"/>
<ellipse cx="52.8819" cy="83.5887" rx="1.70589" ry="1.70589" fill="#FFC53F"/>
<ellipse cx="63.1171" cy="83.5887" rx="1.70589" ry="1.70589" fill="#FFC53F"/>
<ellipse cx="73.3533" cy="83.5887" rx="1.70589" ry="1.70589" fill="#FFC53F"/>
<ellipse cx="83.5885" cy="83.5887" rx="1.70589" ry="1.70589" fill="#FFC53F"/>
<ellipse cx="93.8247" cy="83.5887" rx="1.70589" ry="1.70589" fill="#FFC53F"/>
<ellipse cx="104.059" cy="83.5887" rx="1.70589" ry="1.70589" fill="#FFC53F"/>
<ellipse cx="114.294" cy="83.5887" rx="1.70589" ry="1.70589" fill="#FFC53F"/>
<ellipse cx="1.70589" cy="93.8241" rx="1.70589" ry="1.70589" fill="#FFC53F"/>
<ellipse cx="11.9401" cy="93.8241" rx="1.70589" ry="1.70589" fill="#FFC53F"/>
<ellipse cx="22.1763" cy="93.8241" rx="1.70589" ry="1.70589" fill="#FFC53F"/>
<ellipse cx="32.4115" cy="93.8241" rx="1.70589" ry="1.70589" fill="#FFC53F"/>
<ellipse cx="42.6477" cy="93.8241" rx="1.70589" ry="1.70589" fill="#FFC53F"/>
<ellipse cx="52.8819" cy="93.8241" rx="1.70589" ry="1.70589" fill="#FFC53F"/>
<ellipse cx="63.1171" cy="93.8241" rx="1.70589" ry="1.70589" fill="#FFC53F"/>
<ellipse cx="73.3533" cy="93.8241" rx="1.70589" ry="1.70589" fill="#FFC53F"/>
<ellipse cx="83.5885" cy="93.8241" rx="1.70589" ry="1.70589" fill="#FFC53F"/>
<ellipse cx="93.8247" cy="93.8241" rx="1.70589" ry="1.70589" fill="#FFC53F"/>
<ellipse cx="104.059" cy="93.8241" rx="1.70589" ry="1.70589" fill="#FFC53F"/>
<ellipse cx="114.294" cy="93.8241" rx="1.70589" ry="1.70589" fill="#FFC53F"/>
<ellipse cx="1.70589" cy="104.06" rx="1.70589" ry="1.70589" fill="#FFC53F"/>
<ellipse cx="11.9401" cy="104.059" rx="1.70589" ry="1.70589" fill="#FFC53F"/>
<ellipse cx="22.1763" cy="104.059" rx="1.70589" ry="1.70589" fill="#FFC53F"/>
<ellipse cx="32.4115" cy="104.059" rx="1.70589" ry="1.70589" fill="#FFC53F"/>
<ellipse cx="42.6477" cy="104.059" rx="1.70589" ry="1.70589" fill="#FFC53F"/>
<ellipse cx="52.8819" cy="104.059" rx="1.70589" ry="1.70589" fill="#FFC53F"/>
<ellipse cx="63.1171" cy="104.059" rx="1.70589" ry="1.70589" fill="#FFC53F"/>
<ellipse cx="73.3533" cy="104.059" rx="1.70589" ry="1.70589" fill="#FFC53F"/>
<ellipse cx="83.5885" cy="104.059" rx="1.70589" ry="1.70589" fill="#FFC53F"/>
<ellipse cx="93.8247" cy="104.059" rx="1.70589" ry="1.70589" fill="#FFC53F"/>
<ellipse cx="104.059" cy="104.059" rx="1.70589" ry="1.70589" fill="#FFC53F"/>
<ellipse cx="114.294" cy="104.059" rx="1.70589" ry="1.70589" fill="#FFC53F"/>
<ellipse cx="1.70589" cy="114.294" rx="1.70589" ry="1.70589" fill="#FFC53F"/>
<ellipse cx="11.9401" cy="114.294" rx="1.70589" ry="1.70589" fill="#FFC53F"/>
<ellipse cx="22.1763" cy="114.294" rx="1.70589" ry="1.70589" fill="#FFC53F"/>
<ellipse cx="32.4115" cy="114.294" rx="1.70589" ry="1.70589" fill="#FFC53F"/>
<ellipse cx="42.6477" cy="114.294" rx="1.70589" ry="1.70589" fill="#FFC53F"/>
<ellipse cx="52.8819" cy="114.294" rx="1.70589" ry="1.70589" fill="#FFC53F"/>
<ellipse cx="63.1171" cy="114.294" rx="1.70589" ry="1.70589" fill="#FFC53F"/>
<ellipse cx="73.3533" cy="114.294" rx="1.70589" ry="1.70589" fill="#FFC53F"/>
<ellipse cx="83.5885" cy="114.294" rx="1.70589" ry="1.70589" fill="#FFC53F"/>
<ellipse cx="93.8247" cy="114.294" rx="1.70589" ry="1.70589" fill="#FFC53F"/>
<ellipse cx="104.059" cy="114.294" rx="1.70589" ry="1.70589" fill="#FFC53F"/>
<ellipse cx="114.294" cy="114.294" rx="1.70589" ry="1.70589" fill="#FFC53F"/>
</g>
</g>
</svg>
