<svg width="80" height="80" viewBox="0 0 80 80" fill="none" xmlns="http://www.w3.org/2000/svg">
<g id="archive">
<g id="archive_2">
<path id="Combined Shape" fill-rule="evenodd" clip-rule="evenodd" d="M22.5556 12.1667C22.5556 11.0877 23.655 10.1111 25.125 10.1111H52.875C54.345 10.1111 55.4444 11.0877 55.4444 12.1667V18.3313H16.7315C13.1729 18.3313 10.2222 21.055 10.2222 24.498V30.6667H8.42361C4.9029 30.6667 2 33.3969 2 36.8333V73.8333C2 77.2697 4.9029 80 8.42361 80H69.5764C73.0971 80 76 77.2697 76 73.8333V36.8333C76 33.3969 73.0971 30.6667 69.5764 30.6667H67.7778V24.498C67.7778 21.055 64.8271 18.3313 61.2685 18.3313H59.5556V12.1667C59.5556 8.70158 56.5142 6 52.875 6H25.125C21.4858 6 18.4444 8.70158 18.4444 12.1667C18.4444 13.3019 19.3647 14.2222 20.5 14.2222C21.6353 14.2222 22.5556 13.3019 22.5556 12.1667ZM16.7315 22.4424H55.4444V24.4424C55.4444 25.5777 56.3647 26.498 57.5 26.498C58.6353 26.498 59.5556 25.5777 59.5556 24.4424V22.4424H61.2685C62.6268 22.4424 63.6667 23.4023 63.6667 24.498V30.6667H14.3333V24.498C14.3333 23.4023 15.3732 22.4424 16.7315 22.4424ZM14.3333 34.7777V38.9691C14.3333 40.1044 13.413 41.0247 12.2778 41.0247C11.1425 41.0247 10.2222 40.1044 10.2222 38.9691V34.7777H8.42361C7.11897 34.7777 6.11111 35.7256 6.11111 36.8333V73.8333C6.11111 74.9409 7.11897 75.8888 8.42361 75.8888H69.5764C70.881 75.8888 71.8889 74.9409 71.8889 73.8333V36.8333C71.8889 35.7256 70.881 34.7777 69.5764 34.7777H14.3333ZM51.3333 55.3344V51.1781C51.3333 50.0428 52.2536 49.1225 53.3889 49.1225C54.5241 49.1225 55.4444 50.0428 55.4444 51.1781V55.3344C55.4444 57.6807 53.3855 59.4455 50.9907 59.4455H27.0093C24.6145 59.4455 22.5556 57.6807 22.5556 55.3344V51.1781C22.5556 50.0428 23.4759 49.1225 24.6111 49.1225C25.7464 49.1225 26.6667 50.0428 26.6667 51.1781V55.3344C26.6667 55.2912 26.6949 55.2965 26.7644 55.3094C26.8187 55.3196 26.8983 55.3344 27.0093 55.3344H50.9907C51.1017 55.3344 51.1813 55.3196 51.2356 55.3094C51.3051 55.2965 51.3333 55.2912 51.3333 55.3344Z" fill="#FFC53F"/>
</g>
</g>
</svg>
