<svg width="21" height="22" viewBox="0 0 21 22" fill="none" xmlns="http://www.w3.org/2000/svg">
<path fill-rule="evenodd" clip-rule="evenodd" d="M20.2354 11.1664L20.2354 16.9563C20.2354 18.1143 19.2742 19.0242 18.1275 19.0242L8.31336 19.0242C7.91456 19.5717 7.30075 19.8513 6.67683 19.8513C6.35981 19.8513 6.04447 19.7777 5.72492 19.6123C4.12464 18.7314 2.53532 17.8315 0.957807 16.9117C0.336413 16.5295 -1.73571e-07 15.91 -2.0395e-07 15.2202C-2.27081e-07 14.695 0.172 14.4162 0.403864 14.025C0.729316 13.4774 4.91635 6.58076 6.67767 3.67586C6.72151 3.6039 8.35384 0.891722 8.40189 0.823069C8.81503 0.274679 9.41113 6.77101e-05 10.0325 6.68915e-05C10.3487 6.6475e-05 10.6607 0.0761636 10.9853 0.244071C12.5864 1.12414 14.1757 2.02489 15.7532 2.94466C16.5289 3.42192 16.8409 4.28048 16.6706 5.00919C16.8679 5.33342 19.8323 9.82807 20.0162 10.1804C20.1949 10.522 20.2354 10.8107 20.2354 11.1664ZM11.1607 17.3699L18.1275 17.3699C18.3585 17.3699 18.5491 17.1871 18.5491 16.9563L18.5491 13.1614C16.0989 14.5841 13.6361 15.9878 11.1607 17.3699ZM10.1168 16.0415C10.1944 15.9977 18.3771 11.3426 18.4294 11.3053C18.5466 11.216 18.582 11.058 18.512 10.929C18.4344 10.7933 15.7709 6.72632 15.7709 6.72632C15.4531 7.25486 11.6809 13.4625 10.1168 16.0415ZM1.82961 15.4965C3.05723 16.2516 6.48797 18.1424 6.55963 18.1722C6.70381 18.2301 6.86822 18.1788 6.95085 18.049C7.05203 17.8827 15.0003 4.79579 15.0205 4.66841C15.0391 4.54351 14.9826 4.42275 14.8738 4.35658C13.5383 3.57742 10.1944 1.70479 10.1514 1.68329C10.0064 1.62621 9.84198 1.6775 9.75935 1.80736C9.65817 1.97361 1.75036 15.0275 1.71073 15.116C1.64834 15.2649 1.70905 15.4179 1.82961 15.4965Z" fill="#FFC53F"/>
<path opacity="0.72" d="M19.7291 10.9181L16.1879 5.45898L8.59961 17.866L19.7291 10.9181Z" fill="#FFC53F"/>
<path opacity="0.32" d="M18.9271 17.5163L18.7152 12.6991L9.10634 17.9321L18.9271 17.5163Z" fill="#FFC53F"/>
</svg>
