<svg width="20" height="23" viewBox="0 0 20 23" fill="none" xmlns="http://www.w3.org/2000/svg">
<path fill-rule="evenodd" clip-rule="evenodd" d="M19.7513 6.07745C19.905 6.16071 20 6.31685 20 6.48608V17.0417C20 17.2063 19.91 17.3589 19.7629 17.4438L10.2526 22.9327C10.1013 23.02 9.91277 23.0225 9.75906 22.9393C9.60536 22.856 9.51032 22.6999 9.51032 22.5306V11.975C9.51032 11.8104 9.60029 11.6578 9.74741 11.5729L19.2577 6.08396C19.409 5.99667 19.5975 5.99418 19.7513 6.07745ZM10.4897 12.2403V21.7001L19.0206 16.7764V7.31661L10.4897 12.2403Z" fill="#FFC53F"/>
<path fill-rule="evenodd" clip-rule="evenodd" d="M0.248746 6.07745C0.0950424 6.16071 1.38061e-06 6.31685 1.38061e-06 6.48608V17.0417C1.38061e-06 17.2063 0.0899681 17.3589 0.237094 17.4438L9.74741 22.9327C9.89867 23.02 10.0872 23.0225 10.2409 22.9393C10.3946 22.856 10.4897 22.6999 10.4897 22.5306V11.975C10.4897 11.8104 10.3997 11.6578 10.2526 11.5729L0.742269 6.08396C0.591016 5.99667 0.402451 5.99418 0.248746 6.07745ZM9.51032 12.2403V21.7001L0.979362 16.7764V7.31661L9.51032 12.2403Z" fill="#FFC53F"/>
<path fill-rule="evenodd" clip-rule="evenodd" d="M9.88197 0.07307C9.7163 -0.0277114 9.50386 -0.0239638 9.34217 0.0825927L0.212264 6.09929C0.0749635 6.18977 -0.00491702 6.34097 0.000234878 6.5006C0.00538864 6.66024 0.0948687 6.80641 0.237743 6.88858L9.74806 12.3583C9.90313 12.4475 10.0969 12.4475 10.2519 12.3583L19.7623 6.88858C19.9079 6.80483 19.9978 6.65474 20 6.49197C20.0021 6.3292 19.9161 6.17699 19.7727 6.08977L9.88197 0.07307ZM18.578 6.47488L10 11.4084L1.39477 6.45924L9.63039 1.03189L18.578 6.47488Z" fill="#FFC53F"/>
<path opacity="0.32" d="M10 11.9791V22.5208L19.5 17.2499V6.70825L10 11.9791Z" fill="#FFC53F"/>
<path opacity="0.72" d="M10 11.9791V22.9999L0.5 17.2499V6.70825L10 11.9791Z" fill="#FFC53F"/>
</svg>
