<svg width="40" height="40" viewBox="0 0 40 40" fill="none" xmlns="http://www.w3.org/2000/svg">
<path fill-rule="evenodd" clip-rule="evenodd" d="M31.4413 8.53953C32.1697 8.79453 32.6563 9.4812 32.6563 10.2529V21.5412C32.6563 24.6962 31.5097 27.7079 29.4847 30.0412C28.4663 31.2162 27.178 32.1312 25.8097 32.8712L19.8797 36.0745L13.9397 32.8695C12.5697 32.1295 11.2797 31.2162 10.2597 30.0395C8.23301 27.7062 7.08301 24.6929 7.08301 21.5345V10.2529C7.08301 9.4812 7.56967 8.79453 8.29801 8.53953L19.268 4.68453C19.658 4.54786 20.083 4.54786 20.4713 4.68453L31.4413 8.53953Z" stroke="#FFC53F" stroke-width="1.5" stroke-linecap="round" stroke-linejoin="round"/>
<path d="M15.5371 19.8627L18.6904 23.0177L25.1871 16.521" stroke="#FFC53F" stroke-width="1.5" stroke-linecap="round" stroke-linejoin="round"/>
</svg>
