<svg width="80" height="80" viewBox="0 0 80 80" fill="none" xmlns="http://www.w3.org/2000/svg">
<g id="duplicate">
<g id="duplicate_2">
<path id="Combined Shape" fill-rule="evenodd" clip-rule="evenodd" d="M47.8901 5.49215C46.9397 4.53667 45.6496 4 44.3033 4H23.8047C21.0117 4 18.7458 6.2659 18.7458 9.05887V59.6476C18.7458 62.4406 21.0117 64.7065 23.8047 64.7065H52.471V66.3929C52.471 67.3246 51.717 68.0791 50.7847 68.0791H17.0589C16.1285 68.0791 15.3726 67.3232 15.3726 66.3929V12.4315C15.3726 11.5002 14.6176 10.7452 13.6863 10.7452C12.755 10.7452 12 11.5002 12 12.4315V66.3929C12 69.1858 14.2659 71.4517 17.0589 71.4517H50.7847C53.5801 71.4517 55.8436 69.1867 55.8436 66.3929V64.7065H57.5305C60.326 64.7065 62.5894 62.4415 62.5894 59.6476V25.9493H64.3145C65.2458 25.9493 66.0008 25.1943 66.0008 24.263C66.0008 23.3317 65.2458 22.5767 64.3145 22.5767H62.5894V22.3603C62.5894 21.0264 62.0605 19.7468 61.1204 18.7967L47.8901 5.49215ZM44.0858 22.5767H59.2168V22.3604C59.2168 21.917 59.0399 21.4891 58.726 21.1718L45.4989 7.87046C45.1815 7.55136 44.7518 7.37262 44.3033 7.37262H23.8047C22.8744 7.37262 22.1184 8.12856 22.1184 9.05891V59.6477C22.1184 60.578 22.8744 61.3339 23.8047 61.3339H57.5305C58.4628 61.3339 59.2168 60.5794 59.2168 59.6477V25.9493H42.7401C41.623 25.9493 40.7132 25.0456 40.7132 23.9257V12.3443C40.7132 11.4129 41.4681 10.658 42.3995 10.658C43.3308 10.658 44.0858 11.4129 44.0858 12.3443V22.5767Z" fill="#FFC53F"/>
</g>
</g>
</svg>
