<svg width="16" height="16" viewBox="0 0 16 16" fill="none" xmlns="http://www.w3.org/2000/svg">
<path fill-rule="evenodd" clip-rule="evenodd" d="M4.53325 1.91663L4.50282 1.91663C3.96866 1.91662 3.52282 1.91661 3.15858 1.94637C2.7787 1.9774 2.42204 2.04451 2.08478 2.21636C1.56733 2.48001 1.14664 2.90071 0.882985 3.41815C0.711141 3.75542 0.64403 4.11207 0.612992 4.49196C0.583233 4.85619 0.583242 5.30204 0.583252 5.83619L0.583253 5.86663V10.1333L0.583252 10.1637C0.583242 10.6979 0.583233 11.1437 0.612992 11.508C0.64403 11.8878 0.711141 12.2445 0.882985 12.5818C1.14664 13.0992 1.56733 13.5199 2.08478 13.7836C2.42204 13.9554 2.7787 14.0225 3.15858 14.0536C3.5228 14.0833 3.96863 14.0833 4.50276 14.0833H4.5028H4.53325H11.4666H11.497H11.4971C12.0312 14.0833 12.477 14.0833 12.8413 14.0536C13.2211 14.0225 13.5778 13.9554 13.9151 13.7836C14.4325 13.5199 14.8532 13.0992 15.1169 12.5818C15.2887 12.2445 15.3558 11.8878 15.3868 11.508C15.4166 11.1437 15.4166 10.6979 15.4166 10.1638V10.1637V10.1333V5.86663V5.83618V5.83613C15.4166 5.30201 15.4166 4.85618 15.3868 4.49196C15.3558 4.11207 15.2887 3.75542 15.1169 3.41815C14.8532 2.90071 14.4325 2.48001 13.9151 2.21636C13.5778 2.04451 13.2211 1.9774 12.8413 1.94637C12.477 1.91661 12.0312 1.91662 11.497 1.91663L11.4666 1.91663H4.53325ZM2.76576 3.55287C2.85633 3.50673 2.99361 3.46484 3.28073 3.44138C3.57661 3.41721 3.96082 3.41663 4.53325 3.41663H11.4666C12.039 3.41663 12.4232 3.41721 12.7191 3.44138C13.0062 3.46484 13.1435 3.50673 13.2341 3.55287C13.4693 3.67271 13.6605 3.86394 13.7803 4.09914C13.8265 4.1897 13.8684 4.32698 13.8918 4.6141C13.916 4.90998 13.9166 5.2942 13.9166 5.86663V10.1333C13.9166 10.7057 13.916 11.0899 13.8918 11.3858C13.8684 11.6729 13.8265 11.8102 13.7803 11.9008C13.6605 12.136 13.4693 12.3272 13.2341 12.4471C13.1435 12.4932 13.0062 12.5351 12.7191 12.5585C12.4232 12.5827 12.039 12.5833 11.4666 12.5833H4.53325C3.96082 12.5833 3.57661 12.5827 3.28073 12.5585C2.99361 12.5351 2.85633 12.4932 2.76576 12.4471C2.53056 12.3272 2.33934 12.136 2.21949 11.9008C2.17335 11.8102 2.13147 11.6729 2.10801 11.3858C2.08384 11.0899 2.08325 10.7057 2.08325 10.1333V5.86663C2.08325 5.2942 2.08384 4.90998 2.10801 4.6141C2.13147 4.32698 2.17335 4.1897 2.21949 4.09914C2.33934 3.86394 2.53056 3.67271 2.76576 3.55287ZM4.41594 4.70926C4.0713 4.47949 3.60565 4.57262 3.37588 4.91727C3.14612 5.26191 3.23925 5.72757 3.58389 5.95733L7.58389 8.624C7.83582 8.79195 8.16402 8.79195 8.41594 8.624L12.4159 5.95733C12.7606 5.72757 12.8537 5.26191 12.624 4.91727C12.3942 4.57262 11.9285 4.47949 11.5839 4.70926L7.99992 7.09857L4.41594 4.70926Z" fill="#FFC53F"/>
</svg>
