<svg width="16" height="16" viewBox="0 0 16 16" fill="none" xmlns="http://www.w3.org/2000/svg">
<path d="M7.99556 16C5.81011 16 5.55247 15.9885 4.69961 15.9512C4.03453 15.9294 3.37806 15.7944 2.75847 15.552C1.68645 15.1354 0.83877 14.2886 0.421988 13.218C0.188612 12.5971 0.0627366 11.941 0.0497501 11.2779C0 10.428 0 10.1495 0 7.98403C0 5.79552 0.0115491 5.54003 0.0497501 4.69284C0.0630207 4.03062 0.188892 3.37548 0.421988 2.75538C0.838318 1.68333 1.68737 0.835815 2.76113 0.420492C3.3818 0.186474 4.03806 0.0604518 4.70139 0.0479042C5.54981 0 5.82876 0 7.99556 0C10.1988 0 10.452 0.0115325 11.2915 0.0479042C11.9565 0.0605603 12.6145 0.186569 13.2371 0.420492C14.3105 0.836285 15.1594 1.68363 15.5762 2.75538C15.8135 3.38451 15.9401 4.0499 15.9502 4.72211C16 5.57197 16 5.84963 16 8.01419C16 10.1788 15.9876 10.4626 15.9502 11.3027C15.937 11.9665 15.8108 12.6231 15.5771 13.2446C15.1593 14.316 14.3103 15.1631 13.2371 15.5795C12.6154 15.8121 11.9588 15.9378 11.2951 15.9512C10.4466 16 10.1686 16 7.99556 16ZM7.96535 1.4043C5.79234 1.4043 5.56669 1.41495 4.71827 1.45309C4.21187 1.45979 3.71036 1.55311 3.23554 1.72899C2.53437 1.9969 1.97955 2.54867 1.70838 3.24773C1.53089 3.72703 1.43743 4.23329 1.43209 4.74429C1.38501 5.6039 1.38501 5.82923 1.38501 7.98403C1.38501 10.1131 1.393 10.3713 1.43209 11.2255C1.44005 11.7314 1.53346 12.2322 1.70838 12.707C1.97995 13.4056 2.53468 13.957 3.23554 14.2249C3.71004 14.4019 4.21175 14.4953 4.71827 14.5008C5.57823 14.5505 5.80478 14.5505 7.96535 14.5505C10.1446 14.5505 10.3702 14.5398 11.2115 14.5008C11.7183 14.4946 12.2202 14.4013 12.6952 14.2249C13.3921 13.9547 13.9433 13.4046 14.2143 12.7088C14.3915 12.2291 14.4849 11.7226 14.4906 11.2114H14.5004C14.5386 10.3633 14.5386 10.1371 14.5386 7.96984C14.5386 5.80262 14.5288 5.57463 14.4906 4.72743C14.4826 4.22218 14.3892 3.7219 14.2143 3.24773C13.9439 2.55096 13.3926 1.99982 12.6952 1.72899C12.2203 1.55222 11.7183 1.45888 11.2115 1.45309C10.3525 1.4043 10.1277 1.4043 7.96535 1.4043ZM7.99556 12.0816C6.33425 12.0827 4.83591 11.0843 4.19932 9.55197C3.56274 8.01967 3.9133 6.25534 5.08751 5.0818C6.26173 3.90826 8.02831 3.55668 9.56336 4.19102C11.0984 4.82537 12.0996 6.32068 12.0999 7.9796C12.0975 10.2427 10.2619 12.0772 7.99556 12.0816ZM7.99556 5.31648C6.52362 5.31648 5.33037 6.508 5.33037 7.97782C5.33037 9.44764 6.52362 10.6392 7.99556 10.6392C9.4675 10.6392 10.6607 9.44764 10.6607 7.97782C10.6573 6.50942 9.46608 5.31989 7.99556 5.31648ZM12.2599 4.68397C11.7316 4.68201 11.3047 4.25335 11.3057 3.72589C11.3067 3.19843 11.7352 2.77135 12.2634 2.77135C12.7916 2.77135 13.2201 3.19842 13.2211 3.72588C13.2213 3.98036 13.1201 4.22446 12.9397 4.40424C12.7593 4.58402 12.5147 4.68467 12.2599 4.68397Z" fill="#FFC53F"/>
</svg>
