<svg width="80" height="80" viewBox="0 0 80 80" fill="none" xmlns="http://www.w3.org/2000/svg">
<g id="list">
<g id="list_2">
<path id="Combined Shape" fill-rule="evenodd" clip-rule="evenodd" d="M10.1 18H14.3C15.4598 18 16.4 18.9402 16.4 20.1C16.4 21.2598 15.4598 22.2 14.3 22.2H10.1C8.9402 22.2 8 21.2598 8 20.1C8 18.9402 8.9402 18 10.1 18ZM26.9 18H73.1C74.2598 18 75.2 18.9402 75.2 20.1C75.2 21.2598 74.2598 22.2 73.1 22.2H26.9C25.7402 22.2 24.8 21.2598 24.8 20.1C24.8 18.9402 25.7402 18 26.9 18ZM14.3 43.2H10.1C8.9402 43.2 8 44.1402 8 45.3C8 46.4598 8.9402 47.4 10.1 47.4H14.3C15.4598 47.4 16.4 46.4598 16.4 45.3C16.4 44.1402 15.4598 43.2 14.3 43.2ZM26.9 43.2H73.1C74.2598 43.2 75.2 44.1402 75.2 45.3C75.2 46.4598 74.2598 47.4 73.1 47.4H26.9C25.7402 47.4 24.8 46.4598 24.8 45.3C24.8 44.1402 25.7402 43.2 26.9 43.2ZM14.3 30.6H10.1C8.9402 30.6 8 31.5402 8 32.7C8 33.8598 8.9402 34.8 10.1 34.8H14.3C15.4598 34.8 16.4 33.8598 16.4 32.7C16.4 31.5402 15.4598 30.6 14.3 30.6ZM26.9 30.6H56.3C57.4598 30.6 58.4 31.5402 58.4 32.7C58.4 33.8598 57.4598 34.8 56.3 34.8H26.9C25.7402 34.8 24.8 33.8598 24.8 32.7C24.8 31.5402 25.7402 30.6 26.9 30.6ZM14.3 55.8H10.1C8.9402 55.8 8 56.7402 8 57.9C8 59.0598 8.9402 60 10.1 60H14.3C15.4598 60 16.4 59.0598 16.4 57.9C16.4 56.7402 15.4598 55.8 14.3 55.8ZM26.9 55.8H56.3C57.4598 55.8 58.4 56.7402 58.4 57.9C58.4 59.0598 57.4598 60 56.3 60H26.9C25.7402 60 24.8 59.0598 24.8 57.9C24.8 56.7402 25.7402 55.8 26.9 55.8Z" fill="#FFC53F"/>
</g>
</g>
</svg>
