<svg width="17" height="17" viewBox="0 0 17 17" fill="none" xmlns="http://www.w3.org/2000/svg">
<g clip-path="url(#clip0)">
<path fill-rule="evenodd" clip-rule="evenodd" d="M0.364717 7.56294C0.357528 7.24645 0.549825 6.95954 0.845289 6.8459L13.7256 1.89194C14.0022 1.78554 14.3156 1.85203 14.5251 2.06161C14.7347 2.2712 14.8012 2.58454 14.6948 2.86118L9.74087 15.7415C9.62723 16.0369 9.34031 16.2292 9.02383 16.222C8.70734 16.2149 8.42945 16.0097 8.32935 15.7094L6.46635 10.1204L0.877353 8.25742C0.577033 8.15731 0.371906 7.87942 0.364717 7.56294ZM7.91737 9.73006L9.0913 13.2518L12.689 3.89773L3.33492 7.49547L6.85671 8.6694L9.00593 6.52018C9.29882 6.22729 9.77369 6.22729 10.0666 6.52018C10.3595 6.81307 10.3595 7.28795 10.0666 7.58084L7.91737 9.73006Z" fill="#131313"/>
</g>
<defs>
<clipPath id="clip0">
<rect width="16" height="16" fill="white" transform="translate(0.314453 0.313477)"/>
</clipPath>
</defs>
</svg>
