<svg width="16" height="16" viewBox="0 0 16 16" fill="none" xmlns="http://www.w3.org/2000/svg">
<path d="M12.5222 15H12.5001C9.46836 14.9254 6.57518 13.7147 4.39366 11.6079C2.28617 9.42819 1.07491 6.53591 1.00009 3.50482C0.995623 3.08021 1.16233 2.67167 1.46264 2.37148L3.60448 0.231077C3.91266 -0.0770256 4.41221 -0.0770256 4.72038 0.231077L7.87711 3.38801C8.1852 3.69621 8.1852 4.19579 7.87711 4.50399L6.61758 5.76123C6.85118 6.63406 7.2815 7.44183 7.87554 8.12262C8.55506 8.71691 9.36173 9.14754 10.2336 9.38145L11.4963 8.12341C11.8045 7.81531 12.304 7.81531 12.6122 8.12341L15.7689 11.2803C16.077 11.5885 16.077 12.0881 15.7689 12.3963L13.6271 14.5375C13.3351 14.8326 12.9374 14.9991 12.5222 15ZM4.16085 1.90583H4.15691L2.57854 3.48745C2.6429 6.10665 3.68839 8.60618 5.50799 10.4911C7.3929 12.3102 9.89177 13.3557 12.5104 13.4207L14.0943 11.8383L12.0487 9.79816L11.0283 10.8179C10.8823 10.9655 10.6835 11.0487 10.4759 11.0491C10.4205 11.0491 10.3652 11.0433 10.311 11.0317C8.99588 10.7408 7.77483 10.1245 6.75963 9.23939C5.87453 8.22412 5.2583 7.00299 4.9674 5.68784C4.91252 5.42641 4.99359 5.15497 5.18285 4.96648L6.20247 3.946L4.16085 1.90583Z" fill="#FFC53F"/>
</svg>
