<svg width="80" height="80" viewBox="0 0 80 80" fill="none" xmlns="http://www.w3.org/2000/svg">
<g id="repeat" clip-path="url(#clip0)">
<g id="repeat_2">
<path id="Combined Shape" fill-rule="evenodd" clip-rule="evenodd" d="M52.1281 25.5967C55.435 23.341 55.435 18.4652 52.1281 16.2094L35.6914 4.99662C31.9187 2.42278 26.8092 5.12285 26.8092 9.69025V19.5495C14.8694 21.1988 7.23554 26.7843 4.78761 35.0384C2.17993 43.8312 6.20669 54.1484 14.5113 60.4826C15.343 61.117 16.5315 60.957 17.1659 60.1253C17.8003 59.2936 17.6403 58.105 16.8086 57.4706C9.69287 52.0432 6.28512 43.312 8.41938 36.1155C10.374 29.5246 16.5877 24.8856 26.8092 23.368V32.1159C26.8092 36.6804 31.9194 39.3829 35.6915 36.8095L52.1281 25.5967ZM30.5973 9.69022V19.169C31.8891 19.085 33.2238 19.0423 34.6005 19.0423C35.6466 19.0423 36.4946 19.8903 36.4946 20.9364C36.4946 21.9824 35.6466 22.8304 34.6005 22.8304C33.2139 22.8304 31.8794 22.8752 30.5973 22.9629V32.1159C30.5973 33.6373 32.2998 34.5377 33.5567 33.6802L49.9934 22.4673C51.0957 21.7154 51.0957 20.0907 49.9934 19.3388L33.5566 8.12586C32.2985 7.26757 30.5973 8.16657 30.5973 9.69022ZM31.8721 57.8019C28.5651 60.0577 28.5651 64.9334 31.8721 67.1892L48.3087 78.402C52.0813 80.9758 57.1948 78.2759 57.1948 73.7084V63.8487C69.1323 62.1988 76.7648 56.6136 79.2125 48.3604C81.8202 39.5676 77.7934 29.2504 69.4888 22.9162C68.6571 22.2818 67.4686 22.4417 66.8342 23.2735C66.1998 24.1052 66.3598 25.2937 67.1915 25.9281C74.3072 31.3556 77.715 40.0868 75.5807 47.2833C73.6263 53.8733 67.4139 58.5121 57.1948 60.0302V51.2827C57.1948 46.7152 52.0813 44.0153 48.3087 46.5891L31.8721 57.8019ZM53.4066 60.4356V51.2828C53.4066 49.7598 51.7021 48.8598 50.4435 49.7185L34.0068 60.9313C32.9044 61.6833 32.9044 63.3079 34.0068 64.0599L50.4435 75.2728C51.7021 76.1314 53.4066 75.2315 53.4066 73.7084V64.2296C52.1136 64.3137 50.7776 64.3565 49.3996 64.3565C48.3535 64.3565 47.5055 63.5085 47.5055 62.4624C47.5055 61.4164 48.3535 60.5684 49.3996 60.5684C50.7876 60.5684 52.1234 60.5235 53.4066 60.4356Z" fill="#FFC53F"/>
</g>
</g>
<defs>
<clipPath id="clip0">
<rect width="40" height="40" fill="white" transform="scale(2)"/>
</clipPath>
</defs>
</svg>
