<svg width="40" height="40" viewBox="0 0 40 40" fill="none" xmlns="http://www.w3.org/2000/svg">
<path d="M29.3248 18.2197C31.9954 18.2197 34.1618 16.0548 34.1618 13.3842C34.1618 10.7137 31.9954 8.54883 29.3248 8.54883" stroke="#FFC53F" stroke-width="2" stroke-linecap="round" stroke-linejoin="round"/>
<path d="M31.5485 23.4746C32.346 23.5296 33.1389 23.6427 33.9196 23.8184C35.0043 24.0307 36.309 24.4753 36.7735 25.4485C37.0698 26.0718 37.0698 26.7975 36.7735 27.4224C36.3105 28.3956 35.0043 28.8386 33.9196 29.0617" stroke="#FFC53F" stroke-width="2" stroke-linecap="round" stroke-linejoin="round"/>
<path d="M10.4833 18.2197C7.81275 18.2197 5.64636 16.0548 5.64636 13.3842C5.64636 10.7137 7.81275 8.54883 10.4833 8.54883" stroke="#FFC53F" stroke-width="2" stroke-linecap="round" stroke-linejoin="round"/>
<path d="M8.25965 23.4746C7.46215 23.5296 6.66924 23.6427 5.88854 23.8184C4.80382 24.0307 3.4991 24.4753 3.03618 25.4485C2.73826 26.0718 2.73826 26.7975 3.03618 27.4224C3.49757 28.3956 4.80382 28.8386 5.88854 29.0617" stroke="#FFC53F" stroke-width="2" stroke-linecap="round" stroke-linejoin="round"/>
<path fill-rule="evenodd" clip-rule="evenodd" d="M19.8963 24.5156C25.3077 24.5156 29.9307 25.3345 29.9307 28.6116C29.9307 31.8872 25.3382 32.7366 19.8963 32.7366C14.4833 32.7366 9.86182 31.9177 9.86182 28.6406C9.86182 25.3635 14.4543 24.5156 19.8963 24.5156Z" stroke="#FFC53F" stroke-width="2" stroke-linecap="round" stroke-linejoin="round"/>
<path fill-rule="evenodd" clip-rule="evenodd" d="M19.8962 19.8414C16.3273 19.8414 13.4658 16.9798 13.4658 13.4094C13.4658 9.84053 16.3273 6.979 19.8962 6.979C23.4651 6.979 26.3267 9.84053 26.3267 13.4094C26.3267 16.9798 23.4651 19.8414 19.8962 19.8414Z" stroke="#FFC53F" stroke-width="2" stroke-linecap="round" stroke-linejoin="round"/>
</svg>
