<svg width="18" height="30" viewBox="0 0 18 30" fill="none" xmlns="http://www.w3.org/2000/svg">
<path d="M17.0794 10.6697C17.0806 10.184 16.6868 9.7902 16.1999 9.7902C16.131 9.7902 16.0646 9.79624 16.003 9.81315C15.1005 10.0185 14.2935 10.474 13.6617 11.1046C12.7883 11.9781 12.2482 13.1849 12.2482 14.5175L12.2494 15.7268L4.1214 7.59872C3.18151 6.65883 1.64361 6.65883 0.704921 7.59872C-0.234974 8.53862 -0.234974 10.0765 0.704921 11.0152L4.46329 14.7736C3.76864 14.7023 3.04983 14.9234 2.51706 15.4549C2.14738 15.8246 1.92751 16.2873 1.84898 16.7669L0.299003 22.5754C0.0863786 23.3788 0.291754 24.2692 0.919962 24.8986L3.72998 27.7086C6.78525 30.7639 11.736 30.7639 14.7913 27.7086C16.2712 26.2287 17.0274 24.3042 17.0721 22.3664L17.0806 22.3737V22.184C17.0806 22.1804 17.0806 22.1768 17.0806 22.1756L17.0794 10.6697ZM15.8628 22.3374C15.8218 24.0481 15.1368 25.6524 13.9347 26.8533C11.3555 29.4326 7.16096 29.4326 4.58289 26.8533L1.77287 24.0433C1.47206 23.7424 1.35971 23.3099 1.47085 22.8859L3.03895 16.9638C3.06795 16.7875 3.14889 16.5301 3.36876 16.3091C3.71065 15.9672 4.12261 15.9527 4.33886 15.9744L6.02656 16.1448C6.28026 16.1701 6.52309 16.0336 6.63303 15.8029C6.74296 15.5721 6.69464 15.2979 6.51463 15.1167L1.55783 10.1599C1.08668 9.68872 1.08668 8.92158 1.55783 8.45163C2.02899 7.98048 2.79613 7.98048 3.26608 8.45163L11.8061 16.9916C12.1697 17.3553 12.7025 17.4314 13.1446 17.2332C13.3343 17.1475 13.4563 16.959 13.4563 16.7512V14.5187C13.4563 13.5522 13.8333 12.6437 14.5158 11.9599C14.9012 11.5745 15.3627 11.2834 15.8701 11.1034L15.8628 22.3374Z" fill="white"/>
<path d="M14.6666 3.04077H8.52225L10.7089 0.854121L9.85477 0L6.20996 3.64481L9.84994 7.286L10.7041 6.43188L8.52225 4.24886H14.6666V3.04077Z" fill="white"/>
</svg>
