<svg width="18" height="18" viewBox="0 0 18 18" fill="none" xmlns="http://www.w3.org/2000/svg">
<path d="M9 1C4.58177 1 1 4.58177 1 9C1 13.4182 4.58177 17 9 17C13.4182 17 17 13.4182 17 9C16.9951 4.58385 13.4161 1.00495 9 1ZM15.9189 11.8026L13.6438 12.1952C13.9042 11.2401 14.0448 10.2564 14.0624 9.26667H16.46C16.4299 10.1372 16.2467 10.9957 15.9189 11.8026ZM1.53997 9.26667H3.93763C3.95521 10.2564 4.09583 11.2401 4.35625 12.1952L2.08112 11.8026C1.75326 10.9957 1.57005 10.1372 1.53997 9.26667ZM2.08112 6.1974L4.35625 5.80482C4.09583 6.7599 3.95521 7.74362 3.93763 8.73333H1.53997C1.57005 7.86276 1.75326 7.0043 2.08112 6.1974ZM9.26667 5.28164C10.2249 5.29388 11.1807 5.38112 12.1254 5.54271L13.0667 5.70508C13.3559 6.68919 13.5115 7.70768 13.5293 8.73333H9.26667V5.28164ZM12.2163 5.01706C11.2417 4.85052 10.2553 4.76055 9.26667 4.74831V1.54831C10.7954 1.69518 12.1234 3.09492 12.876 5.13203L12.2163 5.01706ZM8.73333 4.74831C7.74466 4.76055 6.75859 4.85052 5.78398 5.01706L5.12396 5.13125C5.87656 3.09362 7.20456 1.69336 8.73333 1.54714V4.74831ZM5.87487 5.54271C6.8194 5.38112 7.77513 5.29388 8.73333 5.28164V8.73333H4.4707C4.48854 7.70768 4.64414 6.68919 4.93333 5.70508L5.87487 5.54271ZM4.4707 9.26667H8.73333V12.7184C7.77513 12.7061 6.81927 12.6189 5.87461 12.4573L4.93333 12.2949C4.64414 11.3108 4.48854 10.2923 4.4707 9.26667ZM5.78372 12.9829C6.75833 13.1497 7.74453 13.2401 8.73333 13.2531V16.4531C7.20456 16.3061 5.87656 14.9064 5.12396 12.8693L5.78372 12.9829ZM9.26667 13.2531C10.2553 13.2401 11.2414 13.1497 12.216 12.9829L12.876 12.8688C12.1234 14.9064 10.7954 16.3066 9.26667 16.4529V13.2531ZM12.1251 12.4573C11.1806 12.6189 10.2249 12.7061 9.26667 12.7184V9.26667H13.5293C13.5115 10.2923 13.3559 11.3108 13.0667 12.2949L12.1251 12.4573ZM14.0624 8.73333C14.0448 7.74362 13.9042 6.7599 13.6438 5.80482L15.9189 6.1974C16.2467 7.0043 16.4299 7.86276 16.46 8.73333H14.0624ZM15.6491 5.60964L13.4682 5.23333C13.0762 3.9543 12.3427 2.80638 11.3466 1.91328C13.2092 2.5349 14.7539 3.86185 15.6491 5.60964ZM6.65339 1.91328C5.65729 2.80638 4.92383 3.9543 4.53177 5.23333L2.35091 5.60964C3.24609 3.86185 4.79076 2.5349 6.65339 1.91328ZM2.35091 12.3904L4.53177 12.7667C4.92383 14.0457 5.65729 15.1936 6.65339 16.0867C4.79076 15.4651 3.24609 14.1382 2.35091 12.3904ZM11.3466 16.0867C12.3427 15.1936 13.0762 14.0457 13.4682 12.7667L15.6491 12.3904C14.7539 14.1382 13.2092 15.4651 11.3466 16.0867Z" fill="#FFC53F" stroke="#FFC53F" stroke-width="0.5"/>
</svg>
