<svg width="80" height="80" fill="none" xmlns="http://www.w3.org/2000/svg"><path fill-rule="evenodd" clip-rule="evenodd" d="M22.556 12.167c0-1.08 1.099-2.056 2.569-2.056h27.75c1.47 0 2.57.977 2.57 2.056v6.164H16.73c-3.558 0-6.509 2.724-6.509 6.167v6.169H8.424C4.903 30.667 2 33.397 2 36.833v37C2 77.27 4.903 80 8.424 80h61.152C73.097 80 76 77.27 76 73.833v-37c0-3.436-2.903-6.166-6.424-6.166h-1.798v-6.169c0-3.443-2.95-6.167-6.51-6.167h-1.712v-6.164C59.556 8.702 56.514 6 52.875 6h-27.75c-3.64 0-6.68 2.702-6.68 6.167a2.056 2.056 0 004.11 0zM16.73 22.442h38.713v2a2.056 2.056 0 104.112 0v-2h1.713c1.358 0 2.398.96 2.398 2.056v6.169H14.333v-6.169c0-1.096 1.04-2.056 2.399-2.056zm-2.398 12.336v4.191a2.056 2.056 0 11-4.11 0v-4.191h-1.8c-1.304 0-2.312.948-2.312 2.055v37c0 1.108 1.008 2.056 2.313 2.056h61.152c1.305 0 2.313-.948 2.313-2.056v-37c0-1.107-1.008-2.055-2.313-2.055H14.333zm37 20.556v-4.156a2.056 2.056 0 114.111 0v4.156c0 2.347-2.059 4.111-4.453 4.111H27.009c-2.395 0-4.453-1.764-4.453-4.11v-4.157a2.056 2.056 0 114.11 0v4.156c0-.043.029-.038.098-.025.055.01.134.025.245.025h23.982c.11 0 .19-.014.245-.025.07-.012.097-.018.097.025z" fill="#FFC53F"/></svg>