<svg width="21" height="22" fill="none" xmlns="http://www.w3.org/2000/svg"><path fill-rule="evenodd" clip-rule="evenodd" d="M20.235 11.166v5.79c0 1.158-.96 2.068-2.107 2.068H8.313a2.01 2.01 0 01-1.636.827c-.317 0-.633-.073-.952-.239-1.6-.88-3.19-1.78-4.767-2.7A1.949 1.949 0 010 15.22c0-.525.172-.804.404-1.195.325-.548 4.512-7.444 6.274-10.35.044-.07 1.676-2.782 1.724-2.851A2.015 2.015 0 0110.032 0c.317 0 .629.076.953.244 1.601.88 3.19 1.78 4.768 2.7.776.478 1.088 1.336.918 2.065.197.324 3.161 4.82 3.345 5.171.179.342.22.63.22.986zm-9.074 6.204h6.967a.417.417 0 00.421-.414v-3.795a504.71 504.71 0 01-7.388 4.209zm-1.044-1.329c.077-.043 8.26-4.698 8.312-4.736a.294.294 0 00.083-.376 918.098 918.098 0 00-2.741-4.203c-.318.529-4.09 6.737-5.654 9.315zm-8.287-.545c1.227.756 4.658 2.646 4.73 2.676a.32.32 0 00.39-.123c.102-.166 8.05-13.253 8.07-13.38a.308.308 0 00-.146-.312c-1.336-.78-4.68-2.652-4.723-2.674a.323.323 0 00-.392.124c-.1.167-8.009 13.22-8.048 13.309a.307.307 0 00.119.38z" fill="#FFC53F"/><path opacity=".72" d="M19.73 10.918L16.187 5.46 8.6 17.866l11.13-6.948z" fill="#FFC53F"/><path opacity=".32" d="M18.927 17.516l-.212-4.817-9.609 5.233 9.821-.416z" fill="#FFC53F"/></svg>