<svg width="20" height="23" fill="none" xmlns="http://www.w3.org/2000/svg"><path fill-rule="evenodd" clip-rule="evenodd" d="M19.751 6.077c.154.084.249.24.249.41v10.555c0 .164-.09.317-.237.402l-9.51 5.489a.508.508 0 01-.494.006.466.466 0 01-.249-.408V11.975c0-.165.09-.317.237-.402l9.51-5.489a.508.508 0 01.494-.007zM10.49 12.24v9.46l8.53-4.924v-9.46l-8.53 4.924z" fill="#FFC53F"/><path fill-rule="evenodd" clip-rule="evenodd" d="M.249 6.077a.466.466 0 00-.249.41v10.555c0 .164.09.317.237.402l9.51 5.489c.152.087.34.09.494.006a.467.467 0 00.249-.408V11.975a.466.466 0 00-.237-.402L.743 6.084a.508.508 0 00-.494-.007zM9.51 12.24v9.46L.98 16.776v-9.46l8.53 4.924z" fill="#FFC53F"/><path fill-rule="evenodd" clip-rule="evenodd" d="M9.882.073a.507.507 0 00-.54.01L.212 6.099A.464.464 0 000 6.501c.005.16.095.305.238.388l9.51 5.47a.514.514 0 00.504 0l9.51-5.47A.466.466 0 0020 6.492a.465.465 0 00-.227-.402L9.882.073zm8.696 6.402L10 11.408 1.395 6.46 9.63 1.032l8.948 5.443z" fill="#FFC53F"/><path opacity=".32" d="M10 11.98v10.54l9.5-5.27V6.708L10 11.98z" fill="#FFC53F"/><path opacity=".72" d="M10 11.98V23L.5 17.25V6.708L10 11.98z" fill="#FFC53F"/></svg>