<svg width="40" height="40" fill="none" xmlns="http://www.w3.org/2000/svg"><path clip-rule="evenodd" d="M31.441 8.54a1.814 1.814 0 011.215 1.713V21.54c0 3.155-1.146 6.167-3.171 8.5-1.019 1.175-2.307 2.09-3.675 2.83l-5.93 3.203-5.94-3.204c-1.37-.74-2.66-1.654-3.68-2.83a12.971 12.971 0 01-3.177-8.505V10.253c0-.772.487-1.458 1.215-1.713l10.97-3.855c.39-.137.815-.137 1.203 0l10.97 3.855z" stroke="#FFC53F" stroke-width="1.5" stroke-linecap="round" stroke-linejoin="round"/><path d="M15.537 19.863l3.153 3.155 6.497-6.497" stroke="#FFC53F" stroke-width="1.5" stroke-linecap="round" stroke-linejoin="round"/></svg>