<svg width="80" height="80" fill="none" xmlns="http://www.w3.org/2000/svg"><path fill-rule="evenodd" clip-rule="evenodd" d="M47.89 5.492A5.058 5.058 0 0044.303 4H23.805a5.06 5.06 0 00-5.06 5.059v50.589a5.06 5.06 0 005.06 5.059H52.47v1.686c0 .932-.754 1.686-1.686 1.686H17.059c-.93 0-1.686-.756-1.686-1.686V12.43a1.686 1.686 0 00-3.373 0v53.962a5.06 5.06 0 005.059 5.059h33.726a5.058 5.058 0 005.059-5.06v-1.685h1.687a5.058 5.058 0 005.058-5.06V25.95h1.725a1.686 1.686 0 000-3.372H62.59v-.217a5.068 5.068 0 00-1.469-3.563L47.89 5.492zm-3.804 17.085h15.13v-.217c0-.443-.176-.87-.49-1.188L45.499 7.87a1.685 1.685 0 00-1.196-.497H23.805c-.93 0-1.687.756-1.687 1.686v50.589c0 .93.756 1.686 1.687 1.686H57.53c.932 0 1.686-.755 1.686-1.686V25.949H42.74a2.025 2.025 0 01-2.027-2.023V12.344a1.686 1.686 0 113.373 0v10.233z" fill="#FFC53F"/></svg>