<svg width="16" height="16" fill="none" xmlns="http://www.w3.org/2000/svg"><path fill-rule="evenodd" clip-rule="evenodd" d="M4.533 1.917h-.03c-.534 0-.98 0-1.344.03-.38.03-.737.098-1.074.27a2.75 2.75 0 00-1.202 1.2c-.172.337-.239.694-.27 1.074-.03.364-.03.81-.03 1.344v4.328c0 .535 0 .98.03 1.345.031.38.098.737.27 1.074a2.75 2.75 0 001.202 1.202c.337.171.694.239 1.074.27.364.03.81.03 1.344.03h6.994c.534 0 .98 0 1.344-.03.38-.031.737-.099 1.074-.27a2.751 2.751 0 001.202-1.202c.172-.338.239-.694.27-1.074.03-.364.03-.81.03-1.344V5.837c0-.535 0-.98-.03-1.345-.031-.38-.098-.737-.27-1.074a2.75 2.75 0 00-1.202-1.202c-.337-.171-.694-.239-1.074-.27-.364-.03-.81-.03-1.344-.03H4.533zM2.766 3.553c.09-.046.228-.088.515-.112.296-.024.68-.024 1.252-.024h6.934c.572 0 .956 0 1.252.024.287.024.425.066.515.112.235.12.427.31.546.546.046.09.088.228.112.515.024.296.025.68.025 1.253v4.266c0 .573-.001.957-.025 1.253-.024.287-.066.424-.112.515a1.25 1.25 0 01-.546.546c-.09.046-.228.088-.515.112-.296.024-.68.024-1.252.024H4.533c-.572 0-.956 0-1.252-.024-.287-.024-.425-.066-.515-.112a1.25 1.25 0 01-.547-.546c-.046-.09-.088-.228-.111-.515-.024-.296-.025-.68-.025-1.253V5.867c0-.573 0-.957.025-1.253.023-.287.065-.424.111-.515a1.25 1.25 0 01.547-.546zm1.65 1.156a.75.75 0 10-.832 1.248l4 2.667a.75.75 0 00.832 0l4-2.667a.75.75 0 10-.832-1.248L8 7.1 4.416 4.71z" fill="#FFC53F"/></svg>