<svg width="16" height="16" fill="none" xmlns="http://www.w3.org/2000/svg"><path d="M7.996 16c-2.186 0-2.444-.011-3.296-.049a5.854 5.854 0 01-1.942-.399 4.1 4.1 0 01-2.336-2.334 5.84 5.84 0 01-.372-1.94C0 10.428 0 10.149 0 7.984 0 5.796.012 5.54.05 4.693a5.838 5.838 0 01.372-1.938A4.093 4.093 0 012.762.42a5.811 5.811 0 011.94-.372C5.55 0 5.828 0 7.995 0c2.203 0 2.456.012 3.295.048a5.848 5.848 0 011.946.372 4.097 4.097 0 012.34 2.335 5.82 5.82 0 01.373 1.967c.05.85.05 1.128.05 3.292 0 2.165-.012 2.449-.05 3.289a5.847 5.847 0 01-.373 1.942 4.105 4.105 0 01-2.34 2.335 5.88 5.88 0 01-1.942.371c-.848.049-1.126.049-3.3.049zm-.03-14.596c-2.174 0-2.4.011-3.248.05-.506.006-1.008.1-1.482.275a2.654 2.654 0 00-1.528 1.519c-.177.479-.27.985-.276 1.496-.047.86-.047 1.085-.047 3.24 0 2.13.008 2.387.047 3.242a4.49 4.49 0 00.276 1.481c.272.699.827 1.25 1.528 1.518.474.177.976.27 1.482.276.86.05 1.087.05 3.247.05 2.18 0 2.405-.011 3.246-.05a4.417 4.417 0 001.484-.276 2.663 2.663 0 001.52-1.516c.177-.48.27-.986.276-1.498h.01c.038-.848.038-1.074.038-3.241s-.01-2.395-.048-3.243a4.48 4.48 0 00-.277-1.48 2.663 2.663 0 00-1.519-1.518 4.397 4.397 0 00-1.484-.276c-.859-.049-1.083-.049-3.246-.049zm.03 10.678a4.107 4.107 0 01-3.797-2.53 4.097 4.097 0 01.889-4.47 4.111 4.111 0 014.475-.891A4.101 4.101 0 0112.1 7.98a4.11 4.11 0 01-4.104 4.102zm0-6.766A2.663 2.663 0 005.33 7.978a2.663 2.663 0 002.666 2.661 2.663 2.663 0 002.665-2.661 2.67 2.67 0 00-2.665-2.662zm4.264-.632a.957.957 0 11.005-1.914.957.957 0 01-.005 1.914z" fill="#FFC53F"/></svg>