<svg width="80" height="80" fill="none" xmlns="http://www.w3.org/2000/svg"><path fill-rule="evenodd" clip-rule="evenodd" d="M10.1 18h4.2a2.1 2.1 0 110 4.2h-4.2a2.1 2.1 0 110-4.2zm16.8 0h46.2a2.1 2.1 0 110 4.2H26.9a2.1 2.1 0 110-4.2zM14.3 43.2h-4.2a2.1 2.1 0 100 4.2h4.2a2.1 2.1 0 100-4.2zm12.6 0h46.2a2.1 2.1 0 110 4.2H26.9a2.1 2.1 0 110-4.2zM14.3 30.6h-4.2a2.1 2.1 0 100 4.2h4.2a2.1 2.1 0 100-4.2zm12.6 0h29.4a2.1 2.1 0 110 4.2H26.9a2.1 2.1 0 110-4.2zM14.3 55.8h-4.2a2.1 2.1 0 100 4.2h4.2a2.1 2.1 0 100-4.2zm12.6 0h29.4a2.1 2.1 0 110 4.2H26.9a2.1 2.1 0 110-4.2z" fill="#FFC53F"/></svg>