<svg width="17" height="17" fill="none" xmlns="http://www.w3.org/2000/svg"><g clip-path="url(#clip0)"><path fill-rule="evenodd" clip-rule="evenodd" d="M.365 7.563a.75.75 0 01.48-.717l12.88-4.954a.75.75 0 01.97.97L9.74 15.741a.75.75 0 01-1.412-.033L6.466 10.12.877 8.257a.75.75 0 01-.512-.694zM7.917 9.73l1.174 3.522 3.598-9.354-9.354 3.597L6.857 8.67l2.149-2.15a.75.75 0 011.06 1.06L7.918 9.73z" fill="#131313"/></g><defs><clipPath id="clip0"><path fill="#fff" transform="translate(.314 .313)" d="M0 0h16v16H0z"/></clipPath></defs></svg>