<svg width="16" height="16" fill="none" xmlns="http://www.w3.org/2000/svg"><path d="M12.522 15H12.5a12.098 12.098 0 01-8.106-3.392A12.087 12.087 0 011 3.505a1.579 1.579 0 01.463-1.134L3.604.231a.79.79 0 011.116 0l3.157 3.157a.79.79 0 010 1.116l-1.26 1.257a5.92 5.92 0 001.259 2.362 5.907 5.907 0 002.358 1.258l1.262-1.258a.79.79 0 011.116 0l3.157 3.157a.79.79 0 010 1.116l-2.142 2.141a1.56 1.56 0 01-1.105.463zM4.161 1.906h-.004L2.579 3.487a10.454 10.454 0 002.929 7.004 10.457 10.457 0 007.002 2.93l1.584-1.583-2.045-2.04-1.02 1.02a.779.779 0 01-.718.214A8.05 8.05 0 016.76 9.239a8.05 8.05 0 01-1.793-3.551.79.79 0 01.216-.722l1.02-1.02-2.042-2.04z" fill="#FFC53F"/></svg>