<svg width="80" height="80" fill="none" xmlns="http://www.w3.org/2000/svg"><g clip-path="url(#clip0)"><path fill-rule="evenodd" clip-rule="evenodd" d="M52.128 25.597c3.307-2.256 3.307-7.132 0-9.388L35.691 4.997c-3.772-2.574-8.882.126-8.882 4.693v9.86C14.87 21.198 7.236 26.783 4.788 35.037c-2.608 8.793 1.419 19.11 9.723 25.445a1.894 1.894 0 102.298-3.012c-7.116-5.428-10.524-14.159-8.39-21.355 1.955-6.591 8.169-11.23 18.39-12.748v8.748c0 4.564 5.11 7.267 8.882 4.694l16.437-11.213zM30.598 9.69v9.479a61.717 61.717 0 014.002-.127 1.894 1.894 0 110 3.788c-1.386 0-2.72.045-4.003.133v9.153c0 1.521 1.703 2.422 2.96 1.564l16.436-11.213a1.893 1.893 0 000-3.128L33.557 8.126c-1.259-.858-2.96.04-2.96 1.564zm1.274 48.112c-3.307 2.256-3.307 7.131 0 9.387L48.31 78.402c3.772 2.574 8.886-.126 8.886-4.694v-9.86c11.937-1.65 19.57-7.234 22.018-15.488 2.607-8.792-1.42-19.11-9.724-25.444a1.894 1.894 0 10-2.297 3.012c7.115 5.428 10.523 14.159 8.389 21.355-1.955 6.59-8.167 11.23-18.386 12.747v-8.747c0-4.568-5.114-7.268-8.886-4.694L31.872 57.802zm21.535 2.634v-9.153c0-1.523-1.705-2.423-2.963-1.565L34.007 60.931a1.893 1.893 0 000 3.129l16.437 11.213c1.258.858 2.963-.041 2.963-1.565V64.23a61.76 61.76 0 01-4.007.126 1.894 1.894 0 110-3.788 58.63 58.63 0 004.007-.132z" fill="#FFC53F"/></g><defs><clipPath id="clip0"><path fill="#fff" transform="scale(2)" d="M0 0h40v40H0z"/></clipPath></defs></svg>