<svg width="40" height="40" fill="none" xmlns="http://www.w3.org/2000/svg"><path d="M29.325 18.22a4.837 4.837 0 004.837-4.836 4.837 4.837 0 00-4.837-4.835m2.224 14.926c.797.055 1.59.168 2.37.343 1.085.213 2.39.657 2.855 1.63a2.303 2.303 0 010 1.974c-.464.974-1.77 1.417-2.854 1.64M10.483 18.22a4.837 4.837 0 110-9.67M8.26 23.475c-.798.055-1.59.168-2.371.343-1.085.213-2.39.657-2.853 1.63a2.291 2.291 0 000 1.974c.462.974 1.768 1.417 2.853 1.64" stroke="#FFC53F" stroke-width="2" stroke-linecap="round" stroke-linejoin="round"/><path clip-rule="evenodd" d="M19.896 24.516c5.412 0 10.035.819 10.035 4.096 0 3.275-4.593 4.125-10.035 4.125-5.413 0-10.034-.82-10.034-4.096 0-3.277 4.592-4.125 10.034-4.125zm0-4.675a6.409 6.409 0 01-6.43-6.432 6.408 6.408 0 016.43-6.43 6.408 6.408 0 016.43 6.43 6.409 6.409 0 01-6.43 6.432z" stroke="#FFC53F" stroke-width="2" stroke-linecap="round" stroke-linejoin="round"/></svg>