<svg width="18" height="30" fill="none" xmlns="http://www.w3.org/2000/svg"><path d="M17.08 10.67a.878.878 0 00-1.077-.857 4.83 4.83 0 00-2.341 1.292 4.812 4.812 0 00-1.414 3.412l.001 1.21-8.128-8.128a2.422 2.422 0 00-3.416 0c-.94.94-.94 2.477 0 3.416l3.758 3.759a2.393 2.393 0 00-1.946.68c-.37.37-.59.833-.668 1.313l-1.55 5.808A2.409 2.409 0 00.92 24.9l2.81 2.81a7.82 7.82 0 0011.061 0 7.778 7.778 0 002.281-5.343l.009.008v-.198l-.002-11.506zm-1.217 11.667a6.576 6.576 0 01-1.928 4.516 6.618 6.618 0 01-9.352 0l-2.81-2.81a1.19 1.19 0 01-.302-1.157l1.568-5.922a1.2 1.2 0 01.33-.655c.342-.342.754-.356.97-.335l1.688.17a.605.605 0 00.488-1.027L1.558 10.16a1.209 1.209 0 011.708-1.708l8.54 8.54c.364.363.897.44 1.339.241a.53.53 0 00.311-.482V14.52a3.629 3.629 0 012.414-3.415l-.007 11.233zM14.667 3.04H8.522L10.71.855 9.855 0 6.21 3.645l3.64 3.641.854-.854-2.182-2.183h6.145V3.04z" fill="#fff"/></svg>