<svg width="18" height="18" fill="none" xmlns="http://www.w3.org/2000/svg"><path d="M9 1a8 8 0 108 8 8.01 8.01 0 00-8-8zm6.919 10.803l-2.275.392c.26-.955.4-1.939.418-2.928h2.398a7.42 7.42 0 01-.541 2.536zM1.54 9.267h2.398c.017.99.158 1.973.418 2.928l-2.275-.392a7.418 7.418 0 01-.541-2.536zm.541-3.07l2.275-.392c-.26.955-.4 1.939-.418 2.928H1.54c.03-.87.213-1.729.541-2.536zm7.186-.915c.958.012 1.914.1 2.858.26l.942.163c.289.984.444 2.003.462 3.028H9.267V5.282zm2.95-.265a18.902 18.902 0 00-2.95-.269v-3.2c1.528.147 2.856 1.547 3.609 3.584l-.66-.115zm-3.484-.269c-.988.013-1.974.103-2.949.27l-.66.113c.753-2.037 2.08-3.438 3.61-3.584v3.201zm-2.858.795a18.34 18.34 0 012.858-.261v3.451H4.471c.018-1.025.173-2.044.462-3.028l.942-.162zM4.47 9.267h4.262v3.451a18.35 18.35 0 01-2.858-.26l-.942-.163a11.447 11.447 0 01-.462-3.028zm1.313 3.716c.974.167 1.96.257 2.95.27v3.2c-1.53-.147-2.857-1.547-3.61-3.584l.66.114zm3.483.27a18.961 18.961 0 002.949-.27l.66-.114c-.753 2.037-2.08 3.438-3.61 3.584v-3.2zm2.858-.796c-.944.162-1.9.25-2.858.261V9.267h4.262a11.445 11.445 0 01-.462 3.028l-.942.162zm1.937-3.724a11.94 11.94 0 00-.418-2.928l2.275.392a7.42 7.42 0 01.541 2.536h-2.398zM15.65 5.61l-2.18-.377a7.353 7.353 0 00-2.122-3.32A7.502 7.502 0 0115.65 5.61zM6.653 1.913a7.353 7.353 0 00-2.121 3.32L2.35 5.61a7.502 7.502 0 014.302-3.697zM2.351 12.39l2.18.377a7.354 7.354 0 002.122 3.32 7.502 7.502 0 01-4.302-3.697zm8.996 3.697a7.353 7.353 0 002.121-3.32l2.181-.377a7.502 7.502 0 01-4.302 3.697z" fill="#FFC53F" stroke="#FFC53F" stroke-width=".5"/></svg>