<svg width="106" height="101" fill="none" xmlns="http://www.w3.org/2000/svg"><path fill-rule="evenodd" clip-rule="evenodd" d="M42.711 12.677l-.125-.008c-.376-2.063-.035-3.35 1.195-4.742 2.565-2.854 5.867-3.42 9.454-3.015 2.468.28 4.296 1.616 5.2 3.924.702 1.798 1.217 3.707 1.585 5.61.371 1.948.279 3.911.186 5.876v.001a52.151 52.151 0 00-.082 2.825c.035 4.924-1.543 9.198-4.463 13.059-.088.117-.15.252-.214.387a5.307 5.307 0 01-.098.2l.139.126.139.126.017-.013.004-.002c1.96-1.43 3.92-2.858 5.999-4.37.313.482.653 1.007 1.063 1.636.256-.25.498-.49.732-.723h.001c.25-.248.49-.487.734-.725 2.482-2.413 5.026-4.75 8.001-6.554 1.453-.881 2.996-1.518 4.734-1.364 1.21.105 2.391.37 3.156 1.441-.101.315-.221.621-.342.928-.373.954-.749 1.912-.575 3.15l.272-.352v-.001h.001l.001-.002.002-.002c.317-.41.553-.716.794-1.014 1.175-1.455 2.51-2.728 4.192-3.532 2.822-1.35 5.603-1.574 8.37.3 1.654 1.127 3.587 1.518 5.582 1.595-.25-.256-.533-.439-.813-.62a9.452 9.452 0 01-.39-.261c-.24-.171-.48-.34-.722-.51-.853-.598-1.706-1.197-2.476-1.89-1.64-1.482-2.183-3.455-2.127-5.616.021-.748.09-1.532 1.036-2.015.723 1.476 1.39 2.847 2.057 4.225.098-2.336-.48-4.483-1.723-6.372-1.067-1.622-2.212-3.192-3.368-4.778a289.25 289.25 0 01-1.485-2.049c-.206.036-.421.084-.642.133-.5.11-1.03.228-1.561.238-1.71.028-3.427-.035-5.137-.12-.862-.041-1.252-.552-1.23-1.454.027-1.245.187-2.441.813-3.644.157-.012.315-.028.473-.044.326-.033.655-.066.986-.061 2.461.014 4.86.447 7.216 1.16.973.302 1.564.805 1.974 1.798 1.634 3.967 3.907 7.527 6.93 10.584a29.722 29.722 0 012.107 2.385c2.774 3.49 3.247 7.456 2.371 11.772-2.475.497-4.734 1.357-6.688 3.05-.096-.404-.18-.742-.266-1.09v-.001l-.179-.728c-4.06 7.96-12.053 7.583-15.502 2.456a6.295 6.295 0 00-.336.408c-.247.318-.498.64-.824.795-4.136 1.923-8.293 3.112-12.548-.378-.021.33-.055.635-.087.925-.063.565-.119 1.068-.059 1.558.313 2.47-.96 4.022-2.815 5.288-.244.165-.482.339-.787.561l-.596.433c.554.05 1.013.093 1.454.134.415.04.815.077 1.264.117-1.05 1.315-2.142 2.14-3.448 2.665-3.184 1.273-6.32.539-9.517-.266l.036.052c.412.592.836 1.2 1.417 1.445 1.21.511 2.488.994 3.781 1.176 4.13.573 7.578-.679 10.032-4.218.22-.32.425-.654.629-.987.322-.527.645-1.053 1.032-1.525a33.295 33.295 0 012.947-3.161c.29-.268.701-.409 1.112-.549.19-.065.379-.13.557-.207-1.196 1.861-1.843 3.75-1.863 5.813-.028 3.337-1.69 5.575-4.526 7.065-.43.225-.873.431-1.325.643-.264.123-.531.247-.802.378.403.245.73.448 1.05.65-.448.858-1.206 1.18-1.986 1.51-.468.198-.943.4-1.365.722 1.334.208 2.395-.265 3.507-.761.494-.22.997-.445 1.54-.617-1.054 1.673-2.595 2.232-4.19 2.81-.74.27-1.492.542-2.212.932 1.257.352 2.328.16 3.491-.049.342-.061.69-.124 1.055-.175-.863.683-1.807 1.053-2.738 1.417-.958.376-1.9.745-2.726 1.444.413.054.754.097 1.039.133h.003l.605.077-.48 2.081v.001l-.002.008c-.158.684-.313 1.357-.47 2.03-2.056.344-2.159.282-3.726-.663l-.083-.05c-.65-.392-1.433-.583-2.185-.766l-.158-.039c-.682-.167-1.374-.285-2.13-.414-.354-.06-.722-.123-1.11-.194l.44 1.138v.002l.402 1.042h-6.743l-.08-.785v-.011l-.001-.007v-.006a170.6 170.6 0 01-.12-1.191l2.311.75.008.002.004.001h.002l.008.003 2.282.74c-.075-2.706-1.98-3.085-3.914-3.468-.41-.081-.821-.163-1.216-.267a352.26 352.26 0 00-.508-2.413c1.073.353 2.033.666 2.952.965h.002l.006.002.004.002h.004c.695.227 1.366.445 2.044.668 0-1.462-.667-2.497-2.085-3.001-.57-.203-1.175-.392-1.773-.434-1.453-.105-2.12-.93-2.356-2.476l1.002.266 4.503 1.196s.063-.224.021-.427c-.333-1.77-1.62-2.42-3.197-2.72a448.45 448.45 0 00-1.64-.306h-.006l-.001-.001h-.005v-.001h-.003l-1.355-.252-.068.394v.004c-.028.156-.062.35-.106.61-2.357-3.876-5.124-7.073-8.134-10.06a37.476 37.476 0 01-2.69-2.98c-.352-.431-.63-.92-.91-1.41v-.001a23.454 23.454 0 00-.376-.645c.605.196.98.567 1.342.952.69.727 1.372 1.465 2.054 2.202v.001h.001v.001h.001v.001h.001c1.514 1.638 3.03 3.277 4.644 4.81 2.739 2.595 6 3.554 9.684 2.246.799-.28 1.612-.65 2.064-1.581-6.562 1.091-10.698-.972-11.845-4.239.535-.056 1.056-.112 1.543-.168l-1.229-.93h-.001c-1.33-1.006-2.643-1.998-3.935-3.015-.367-.285-.702-.614-1.037-.943-.223-.219-.446-.438-.68-.645-1.446-1.28-3.1-1.658-5.075-1.147-1.119 3.82-3.886 5.75-7.73 5.946-3.934.203-6.59-1.875-8.182-5.806l-.37 1.082-.001.002-.595 1.735-2.308-.227h-.008l-.014-.002h-.006l-.021-.003h-.003c-1.232-.121-2.437-.24-3.632-.356-1.55-3.182-2.134-6.211-1.439-9.114a18.335 18.335 0 011.807-4.659c2.357-4.197 3.963-8.61 4.581-13.409.056-.44.334-.993.682-1.238 2.655-1.881 5.568-3.19 8.786-3.805.897 1.021 1.363 2.147 1.703 3.337.237.818.05 1.454-.778 1.762l-.609.234c-.887.344-1.776.688-2.693.892-.935.21-1.89.318-2.78.418-.388.044-.763.086-1.12.135-.314.813-.625 1.61-.933 2.399a318.821 318.821 0 00-1.764 4.589c-.91 2.455-1.12 4.973-.41 7.855l.37-1.844v-.002l.002-.004v-.002l.629-3.128c.132-.035.27-.07.41-.105.105.148.223.29.341.433.25.303.5.605.618.952.716 2.091.807 4.21-.417 6.141-.563.884-1.24 1.696-1.917 2.505-.217.26-.435.52-.648.783a8.655 8.655 0 01-.729.767c-.12.117-.24.233-.355.352 2.148-.65 4.06-1.588 5.505-3.309.348-.42.772-.818 1.245-1.077 1.8-1.007 3.719-1.42 5.783-1.07 2.134.364 3.997 1.322 5.721 2.595.245.18.5.345.754.508.12.078.24.155.359.234l.017-.02c.077-.084.149-.162.226-.24a578.41 578.41 0 01-1.164-1.928c-.327-.544-.66-1.097-1.005-1.667 1.627-2.028 3.754-2.672 6.229-2.287 2.026.312 3.776 1.312 5.525 2.31l.28.16c.425.24.855.475 1.352.747l.295.162c.16-.898.294-1.662.423-2.396v-.003l.098-.553c-1.947-1.273-3.914-2.155-5.985-2.826-2.885-.937-5.478-.336-7.856 1.455-.419.317-.82.66-1.24 1.021a48.36 48.36 0 01-.616.525c-2.94-1.26-5.93-1.091-8.89-.021a97.744 97.744 0 00-.506-1.684c-.384-1.252-.757-2.467-1.003-3.71-.41-2.063.139-4.063.737-5.966 3.385-.343 5.644-1.378 8.098-3.532.897-.79 1.3-1.693.932-2.826-.28-.85-.61-1.685-.94-2.519a79.41 79.41 0 01-.478-1.224c-.404-1.056-1.23-1.58-2.301-1.657l-.02-.002c-.766-.062-1.585-.13-2.288.093-1.794.566-3.58 1.196-5.283 2-1.349.637-2.607 1.49-3.81 2.378-.973.72-1.522 1.763-1.453 3.05.14 2.763-.66 5.302-1.918 7.716-.388.742-.795 1.473-1.201 2.204-.49.88-.978 1.76-1.434 2.657-2.947 5.834-2.05 11.471.897 16.997.34.644.883 1 1.627.966 3.315-.154 6.346.972 9.335 2.203 4.484 1.84 8.898 1.63 13.278-.315.403-.177.813-.344 1.155-.482l.103-.042c.667.559 1.327 1.11 1.981 1.655l.003.003a366.875 366.875 0 015.28 4.462c3.045 2.637 4.985 5.988 5.944 9.89.521 2.1.952 4.226.653 6.604h-31.97c.168.277.325.52.47.744.285.444.52.81.691 1.2.647 1.484 1.703 1.847 3.295 1.847 21.874-.046 43.748-.044 65.621-.043l13.126.001c.143 0 .286.004.43.007.36.009.72.017 1.072-.028.305-.035.702-.147.869-.364.561-.741 1.085-1.51 1.701-2.414l.002-.002.68-.997H67.848c.96-5.064 2.705-9.54 5.777-13.444 2.489-3.162 4.915-6.365 6.73-9.982.04-.084.173-.119.173-.119.527.046 1.044.1 1.556.153 1.074.111 2.119.22 3.164.24 3.504.062 6.674-1.008 9.503-3.093l.086-.063c2.71-1.993 5.421-3.987 8.812-4.714.834-.182 1.133-.846 1.293-1.588 1.355-6.302.681-12.108-4.046-16.97-1.592-1.636-3.1-3.364-4.567-5.113-1.12-1.336-1.94-2.889-2.239-4.63-.347-2.029-1.633-3.113-3.42-3.735-2.697-.945-5.484-1.49-8.335-1.455-1.077.014-2.175.377-3.204.741-.459.16-1.036.679-1.12 1.126a40.81 40.81 0 00-.667 5.113c-.062 1.036.57 1.784 1.557 2.155.262.1.523.201.785.303h.001c.928.36 1.858.72 2.801 1.026 1.724.56 3.497.357 5.2.098 2.218 3.672 2.468 5.05 2.072 11.185-3.15-.343-6.076.251-8.572 2.273a89.954 89.954 0 01-.72-.35h-.001c-.416-.203-.8-.39-1.19-.566-2.899-1.309-5.714-1.21-8.412.573-.116.078-.235.155-.353.232-.255.166-.512.333-.759.51-1.453 1.028-3.017 1.594-4.657.566-1.78-1.105-3.365-2.455-3.365-4.833 0-1.2.023-2.4.046-3.6v-.001c.02-.982.038-1.964.044-2.946a14.57 14.57 0 00-1.327-6.184c-.695-1.504-1.676-2.77-3.177-3.553-4.776-2.497-11.922-.994-15.127 3.343-1.751 2.379-2.39 5.093-1.536 8.051.125.434.035.994-.118 1.441-.14.4-.358.768-.576 1.137-.095.162-.19.323-.28.486-.555 1.028-.437 1.28.752 1.56.201.049.41.098.688.16-.007.102-.015.198-.024.291a4.166 4.166 0 00-.025.57c.01.232-.002.481-.014.732-.029.598-.058 1.202.216 1.577.755 1.025.57 1.953.363 2.998l-.002.01c-.063.312-.192.619-.322.926-.31.735-.62 1.473-.032 2.312.042.063-.028.211-.09.346a1.794 1.794 0 00-.056.123c-.383.888-.23 1.755.153 2.588.429.936.878 1.866 1.329 2.798.192.398.384.796.575 1.196.533-.211 1.032-.505 1.524-.795.388-.228.77-.453 1.16-.632.273-.126.5-.228.694-.315.933-.417 1.062-.475 1.62-1.147.16-.193.343-.368.528-.546.54-.518 1.107-1.062 1.231-2.161 1.09 1.214 1.316 2.541 1.53 3.802.105.621.208 1.226.41 1.794.047-.008.094-.01.138-.012.084-.004.157-.008.202-.044a4.69 4.69 0 00.584-.595c1.989-2.448 3.142-5.239 3.58-8.366.223-1.58-.118-2.742-1.71-3.322-.053-.023-.092-.085-.143-.166a1.967 1.967 0 00-.1-.149c.55-1.994.653-4.057.202-6.12 1.598-1.651 1.765-2.267.945-3.596-.403.217-.813.44-1.286.7-.34-.952-.236-1.637.612-2.085.695-.37 1.529-.287 1.946.357.313.483.445 1.12.514 1.707.043.334-.008.68-.067 1.08-.027.187-.056.385-.079.598.939-1.077 1.217-2.168.911-3.175-.459-1.49-2.203-2.371-3.914-1.966-1.675.399-2.314 1.427-2.022 3.246.008.063.024.124.041.186.013.047.026.094.035.143.334 1.86-.007 3.448-1.766 4.483a5.807 5.807 0 00-.548.384 7.88 7.88 0 01-.404.295c-.392.262-.79.513-1.19.765-.869.547-1.736 1.094-2.522 1.746-.806.671-1.571 1.091-2.649.993-.055-1.035.355-1.79 1.043-2.42.636-.582.96-.877 1.038-1.227.08-.362-.1-.781-.468-1.634-.055-.125-.07-.268-.087-.417a3.326 3.326 0 00-.031-.233c1.265-.728 1.71-1.84 1.355-3.155-.452-1.652-1.884-1.745-3.336-1.839zm6.738 16.039c-.217.027-.343.047-.41.12-.094.102-.079.304-.044.76.11-.21.203-.39.288-.558l.001-.001c.057-.111.11-.217.165-.321zm3.494-7.807c-.083 3.053-1.25 5.627-3.446 7.736-.209-1.178.601-2.039 1.27-2.637.79-.706 1.038-1.529 1.303-2.406l.032-.105c.07-.23.135-.461.2-.692.18-.646.36-1.288.641-1.896zm-11.41-2.906v.001l.267 1.226c-.598-.084-.945-.133-1.474-.21l.862-1.651.002-.003.144-.276.198.909v.004zm34.14 54.074v24.677l10.228 1.503.103.015c.333-2.231.18-24.978-.167-26.195H75.674zm4.75 21.563l-.954-.09V75.89h2.823v17.928c-.628-.062-1.224-.117-1.869-.177zm-64.91-19.53l.01.01.006.005.01.01.007.006.002.002a2278.69 2278.69 0 003.09 2.991l1.03-.993c1.328-1.281 2.656-2.562 4.12-3.98v26.51c-.697.15-1.364.296-2.067.449l-.01.002-1.593.347c-.057-1.36-.048-2.647-.04-3.914v-.001c.004-.566.008-1.127.006-1.688-.006-1.427 0-2.854.007-4.281.003-.476.005-.951.006-1.427v-5.792c-.396.34-.72.615-1.023.874l-.485.413-.498-.44c-.271-.24-.571-.503-.962-.854v17.76c-.77.189-1.49.361-2.223.538l-.016.004-.004.001-.005.001-.006.001-.002.001-.008.002-1.385.333V72.14l2.029 1.965.004.005zm14.004 19.692V72.118c-1.383 0-2.502 0-3.698.007V98.3c1.874-.281 3.716-.559 5.553-.836l.037-.005.072-.011.043-.007 4.75-.715.016-2.625v-.002c.044-7.423.087-14.697.075-21.988h-3.726l-.089 10.93c-.029 3.5-.058 6.996-.085 10.517l-1.304.108-1.644.136zm44.04 2.714l-4.467-.327c-1.94-.143-3.88-.285-5.857-.428V72.265c1.106-.364 7.995-.461 10.191-.147.362 1.197.5 22.195.132 24.398zm-3.775-3.889c.354-1.902.23-15.724-.132-16.948h-2.67v16.69c.616.06 1.195.112 1.759.163l1.043.095zm-31.563-5.624v9.52c3.553-.266 6.994-.517 10.553-.776 0-1.014-.005-2.01-.01-2.994-.01-2.416-.022-4.756.038-7.093.028-1.224-.3-1.937-1.446-2.455-1.267-.571-2.49-1.235-3.681-1.881-.515-.28-1.023-.555-1.526-.819V75.7h2.906v3.707h3.6V72.09H38.429a6.846 6.846 0 01-.071.291 1.832 1.832 0 00-.082.458c-.013 1.05-.019 2.1-.025 3.15v.001c-.01 1.8-.021 3.6-.065 5.404-.021.88.39 1.293 1.105 1.643 1.382.678 2.747 1.387 4.054 2.065l.002.001c.58.3 1.147.596 1.7.88v6.392l-.943.08-2.171.18V86.66c-1.356.126-2.496.23-3.713.342zM61.124 72.09v7.191H57.53l-.08-1.817v-.009l-.08-1.811h-2.815V91.97h2.836v-9.828c1.158.19 2.026.745 2.873 1.285.21.134.419.267.63.394.209.126.306.587.313.888.018 2.89.01 5.775.004 8.664v.001l-.004 1.736c0 .097-.044.192-.098.306-.031.067-.066.14-.096.226H50.8V72.097c3.388-.007 6.742-.007 10.311-.007h.012zm30.644-.034h-3.58c0 9.016 0 17.823.014 26.629 3.475.77 6.82 1.511 10.337 2.294v-1.845c.002-1.776.003-3.477-.007-5.177 0-.21-.049-.49-.188-.616-.192-.171-.38-.346-.57-.523-.85-.79-1.723-1.601-2.996-2.156v5.281c-.518-.106-.992-.205-1.45-.3-.507-.105-.994-.206-1.498-.308-.024-3.92-.027-7.8-.03-11.668v-.003a2247.03 2247.03 0 00-.032-11.608zm-41.523-18.67c.371.076.746.15 1.122.223.736.144 1.479.29 2.215.456l.492.11c.758.166 1.516.332 2.219.631 1.167.49 1.758 1.448 1.751 2.973-1.546-.995-3.18-1.268-4.809-1.539a70.57 70.57 0 01-.78-.133c-1.71-.308-2.252-1.042-2.21-2.72zm2.831 7.212c1.634.398 3.274.79 4.984 1.196.133-.993-.43-1.798-1.376-2.245-.698-.33-1.473-.505-2.237-.677l-.286-.065c-.711-.161-1.425-.293-2.138-.425-.277-.051-.554-.102-.83-.155.117 1.63.41 2.007 1.883 2.37z" fill="#fff"/></svg>