<svg width="467" height="448" fill="none" xmlns="http://www.w3.org/2000/svg"><path d="M56.852 319.46V448a664.603 664.603 0 0116.3-3.971c.034-31.376.14-48.829.193-80.205l6.774 7.8 6.932-8.382c-.07 30.564-.194 47.188-.264 77.752 6.544-1.394 9.825-2.065 16.387-3.317.071-24.459.159-48.918.229-73.394l.089-25.835c.017-7.535.035-11.312.052-18.847l-23.302 22.941s-23.39-22.941-23.39-23.082z" fill="url(#paint0_linear)"/><path d="M142.053 414.894c-5.504.653-8.238.989-13.724 1.73l.37-97.164h-16.475c-.124 33.176-.23 66.352-.353 99.528-.018 6.83-.035 10.253-.053 17.083 6.58-1.183 9.861-1.73 16.44-2.771 5.486-.865 8.238-1.27 13.724-2.029 6.597-.918 9.896-1.324 16.493-2.1.018-6.424.035-9.653.071-16.077.123-31.217.229-62.434.353-93.652h-16.476l-.37 95.452z" fill="url(#paint1_linear)"/><path d="M184.07 319.46h-16.475c-.018 6.37-.036 9.565-.053 15.935-.018 5.153-.035 7.729-.053 12.865v1.394c-.018 5.753-.035 8.647-.053 14.4v1.535a6983.643 6983.643 0 0030.217 15.423c1.905.971 2.858 1.447 4.78 2.418.124.053.177.07.283.123-2.029.071-3.052.106-5.081.195-.035 10.535-.035 15.811-.07 26.346-5.521.3-8.273.477-13.795.865l.089-26.329c-6.615.335-9.914.512-16.511.935l-.088 26.7c-.018 6.371-.036 9.565-.053 15.935 6.615-.688 9.913-1.006 16.528-1.553 5.521-.459 8.273-.653 13.794-1.006 6.615-.423 9.932-.6 16.564-.882.018-6.176.018-9.265.036-15.423.017-8.012.017-12.018.035-20.03v-1.358c.017-5.577.017-8.365.017-13.942v-1.499c-10.09-5.242-20.162-10.465-30.234-15.724.035-8.647.035-12.988.07-21.635 5.504-.071 8.238-.106 13.742-.159-.018 7.041-.036 10.571-.053 17.612 6.597-.141 9.896-.194 16.511-.283.017-6.988.017-10.482.035-17.47.018-6.176.018-9.265.035-15.423h-16.475c-5.504.035-8.256.035-13.742.035z" fill="url(#paint2_linear)"/><path d="M269.728 389.095v-1.359c0-5.559-.017-8.347-.017-13.906v-1.482c-6.615-3.671-9.931-5.471-16.529-9.053v16.817c0 11.471 0 17.188.018 28.659a906.082 906.082 0 00-13.794 0c.017-24.67.017-49.341.035-73.994h13.741v17.224c6.598.017 9.914.035 16.511.106-.018-6.918-.018-10.359-.018-17.277 0-6.158-.017-9.229-.017-15.388h-46.675c0 6.159-.018 9.23-.018 15.388l-.106 74.223c0 6.159-.017 9.23-.017 15.388 6.632-.211 9.949-.264 16.581-.335a599.93 599.93 0 0113.812 0c6.633.053 9.949.124 16.582.335 0-6.158-.018-9.229-.018-15.388-.053-7.959-.053-11.964-.071-19.958z" fill="url(#paint3_linear)"/><path d="M325.065 335.395c-.018-6.37-.036-9.565-.053-15.935h-46.675c.017 6.176.017 9.264.035 15.423.035 24.812.088 49.641.141 74.453.018 6.176.018 9.264.035 15.423 6.633.282 9.949.459 16.564.882 5.521.353 8.273.565 13.794 1.006 6.615.547 9.932.865 16.547 1.553-.018-6.37-.036-9.564-.053-15.935-.159-25.606-.247-51.247-.335-76.87zm-30.041 74.717c-.071-25.023-.124-50.064-.194-75.088 5.503.053 8.238.089 13.741.159.071 25.271.159 50.523.247 75.794a725.008 725.008 0 00-13.794-.865z" fill="url(#paint4_linear)"/><path d="M380.418 336.542c-.018-6.829-.035-10.253-.053-17.082H333.69c.018 6.423.036 9.653.053 16.076.106 25.853.194 51.706.3 77.576.018 6.424.035 9.653.053 16.076 6.597.759 9.914 1.183 16.493 2.1 5.504.759 8.238 1.165 13.724 2.03 6.58 1.041 9.878 1.588 16.44 2.77-.017-6.829-.035-10.253-.053-17.082-.088-27.494-.176-54.97-.282-82.464zm-29.882 78.352l-.317-79.058c5.486.106 8.238.177 13.724.3l.317 80.488a905.437 905.437 0 00-13.724-1.73z" fill="url(#paint5_linear)"/><path d="M419.367 402.718c0 5.823.018 8.735.018 14.559v8.506a742.942 742.942 0 00-13.636-2.595c-.088-34.57-.158-69.14-.247-103.728h-16.475c.035 12.406.07 24.811.123 37.217.018 5.224.018 7.835.036 13.077 0 1.041 0 1.553.017 2.576.018 4.2.018 6.282.035 10.482.036 12.512.089 25.024.124 37.535.018 6.936.035 10.394.053 17.33 6.562 1.252 9.843 1.923 16.387 3.317 5.451 1.165 8.185 1.765 13.618 3.035A664.142 664.142 0 01435.719 448v-33.529c-6.526-5.524-9.807-8.188-16.369-13.341.017.617.017.953.017 1.588z" fill="url(#paint6_linear)"/><path d="M245.087 371.359l-.089-.088.089.124v-.036z" fill="url(#paint7_linear)"/><path d="M186.011 223.902s-.529 12.6 6.615 14.453c7.215 1.853 18.222 1.623 21.221 8.4 0 0 2.152-12.071-10.002-15.724-9.826-2.982-15.206.23-17.834-7.129z" fill="url(#paint8_linear)"/><path d="M244.733 262.284c-11.095-2.982-17.392-.318-20.074-6.918 0 0-1.235 11.135 6.915 13.024 8.238 1.906 20.762 2.117 23.902 8.223 0-.017 3.087-10.659-10.743-14.329z" fill="url(#paint9_linear)"/><path d="M243.022 241.337c-12.542-3.335-19.668-.388-22.702-7.8 0 0-1.376 12.582 7.867 14.718 9.243 2.117 23.461 2.364 26.989 9.247 0 0 3.457-11.983-12.154-16.165z" fill="url(#paint10_linear)"/><path d="M447.591 68.045c-28.471-28.27-29.67-35.753-33.004-49.13-3.299-13.305-29.229-16.5-44.223-18.529-14.976-1.994-25.049 4.218-26.001 7.536-.917 3.353-7.744 26.558 1.464 31.429 9.208 4.853 26.848 12.247 41.683 6.83 0 0 9.913 17.84 10.002 24.775.052 6.9-2.329 19.253 1.058 26.206 0 0-23.373-5.153-40.148 10.129 0 0-18.222-13.2-36.356-6.688-5.539 1.994-11.307 5.559-16.634 9.6-4.834 2.647-9.684 4.218-15.223 2.471-11.837-3.794-18.434-18.177-18.434-18.177s-.265-8.858-.088-12.511c1.058-21.388 1.146-28.218-2.417-40.906-3.122-11.259-8.837-17.93-13.9-21.83-18.628-11.717-45.37-7.446-59.905 2.948-13.3 9.476-16.634 19.959-17.463 25.059l.088.035s-.882 8.417-1.711 11.4c-.847 2.947 0 4.27 1.446 7.923.053.141.124.3.177.477 0 0 .653 1.005 1.323 3.158-.882 2.453-2.417 6.865-4.04 9.16-1.711 2.452-4.004 5.029-2.91 6.864 1.111 1.8 2.364 1.906 4.445 1.976 1.323.053 3.158-.053 4.004.442-.053.882-.141 1.764-.229 2.682.053.653-.053 1.376-.653 2.065a2.445 2.445 0 01-.405.44c-.353.53-.935 1.8.476 3.16l3.528 1.905c-1.094-.035-2.77.036-3.475.794-1.147 1.289-.618 3.742 1.852 4.359 0 0 2.628 2.453 1.711 8.418-.088.706-.229 1.376-.565 1.906-.917 1.941-.758 5.294-2.628 8.311-1.817 3-1.975 7.041-1.975 7.041l2.293-3.441s1.005 4.659-.318 6.6c-1.288 1.906-1.534 7.836-1.534 7.836l1.622-2.912c-.67 3.794 0 7.341 0 7.341l1.235-2.824c-.317 3.124.917 8.718.917 8.718l.935-2.824c.053 4.395 1.764 7.077 1.764 7.077l.53-2.559c0 .741.758 1.094 1.234 1.2-.388 1.818-.317 3.212.441 3.688l.388.23.177 1.147.3-.671c1.852 2.171-1.147 5.647-1.147 5.647 5.063-2.506 6.439-6.07 7.832-5.559 1.376.494-1.446 4.094-1.446 4.094 3.351-1.535 5.98-7.129 7.444-9.335 1.993 1.853-.23 5.683-.23 5.683 4.481-3.353 5.239-7.13 6.686-6.865 1.464.265-.671 4.306-.671 4.306 4.146-2.859 5.539-12.494 6.774-11.488 1.147.935.388 3.864.388 3.864 5.098-5.329 5.151-12.582 5.151-12.582 1.764 1.288 1.147 4.888 1.147 4.888.846-1.147 1.376-2.541 1.675-3.917 1.994 5.947 5.804 18.317 5.628 26.911 0 0 22.085-20.241 20.409-51.476-2.329-2.17-5.327-4.059-9.014-5.418.141-1.27.141-2.47.053-3.564l.705 1.023c.053-1.623.141-3.211.141-4.482.794 1.2 1.094 2.718 1.094 2.718.618-2.118.3-4.5-.229-6.512a150.79 150.79 0 00-.476-3.794c1.323 1.006 1.711 2.594 1.711 2.594 0-3.388-.847-5.894-1.623-7.447l-.23-1.447c.847.476 1.535 1.27 1.535 1.27.388-3.388-.917-5.894-1.764-7.252-.141-.53-.212-1.183-.3-1.906l1.376-.794c4.057-1.889 7.973-11.277 4.622-13.994-3.334-2.736-5.239 4.676-6.774 3.211-1.094-1.023-1.993-5.382-.088-8.311.529-.618 1.323-1.236 2.24-1.73.847-.476 1.764-.74 2.54-.917l1.006-.124c2.999-.212 5.38 1.447 6.826 3.424.089.14 3.705 6.6-1.146 15.811 0 0 4.674-2.188 5.997-8.24l-1.005.317s1.905-3.512 1.005-7.606l-.758.582s.229-5.682-4.445-6.353l-.089 1.271s-.229-3.741-5.768-4.765l1.376 1.624s-2.628-2.418-8.855-1.182l1.711.652s-4.622-.829-8.45 3.442l1.676-.53s-4.357 2.259-3.387 8.806c.23 1.182.388 2.188.618 3 .388 2.382.758 5.823.388 9.106-.67 5.823-5.292 9.83-5.292 9.83l.476-1.236-7.832 6.388.529-1.2-8.061 6.6.758-1.412-6.597 4.147v-1.006s-.406.23-1.182 1.465c0 0-4.674 4.235-6.685 6.829l.088-2.682-3.387 3.706-.317-2.894-3.599 3.882.212-6 .035-.335c.847-2.912 2.681-6.794 7.515-9.176 7.708-3.795-6.157-13.73.317-14.665 6.121-.918 11.607-22.535-11.254-20.559-.582-2.682-2.064-12.582 5.627-21.088 9.067-10.006 19.686-15.07 38.543-14.259 18.839.83 28.224 10.924 33.974 37.606 3.422 22.447.847 39.847.847 39.847 0 1.941.088 4.147 0 6.635 0 0 .794 11.488-4.145 26.717-.53 1.5-9.208 25.006-21.133 33.865 0 0 17.658-7.712 31.152-21.935 4.392 2.594 4.833 8.894 4.833 8.894s24.396-26.188 44.541-37.429c18.839-10.571 31.064-2.188 34.292 1.094-5.91 10.482-5.68 20.223-5.68 20.223s8.308-15.547 24.766-24.035c16.458-8.453 32.669-1.323 32.669-1.323 9.067 9.652 33.533 11.488 33.533 11.488s-29.3-11.065-32.916-30.335c-3.616-19.288 3.704-19.606 3.704-19.606s10.073 18.617 10.602 25.5c0 0 .759-23.824-13.212-40.376-14.077-16.518-16.07-24.883-16.07-24.883s-23.99 6.742-39.072.089c0 0-2.382-10.183 2.822-21.706 0 0 21.256-2.241 45.476 7.482 0 0 7.602 21.67 23.143 41.224 15.594 19.587 37.59 29.946 30.288 74.364 0 0-8.538 1.023-18.363 5.505-1.323.583-6.086 3.071-12.86 9.036.318-7.077-.917-11.1-.917-11.1-10.161 24.882-28.471 28.411-33.004 28.923l-1.059.088a63.898 63.898 0 01-4.851.053c-20.462-.529-27.994-13.641-30.234-17.929l-1.059.141s.142 1.2.212 3.3c-.3.794-.741 1.535-1.199 2.241-43.571 22.376-58.741-1.482-58.741-1.482-1.058 7.094-.441 13.729-.529 20.047 0 .212-2.628 11.929-20.286 19.553 0 0 7.515 1.323 14.606.388-2.082 2.947-5.01 5.823-8.926 8.753-20.938 15.511-51.226 1.2-51.226 1.2s3.863 11.964 26.231 13.641c23.284 1.729 36.055-6.353 48.368-27.212 8.008-13.517 16.599-19.288 22.455-20.435l1.817-.212c.794-.088 1.464-.229 2.24-.353-2.91 1.889-3.686 3.177-3.686 3.177-4.004 4.059-8.238 11.717-8.626 26.064-.617 26.894-32.828 33.812-32.828 33.812s9.367.212 8.591 2.082c-2.382 6.6-18.522 9.9-18.522 9.9 9.914 2.382 20.462-3.776 26.089-7.888l.053.229-.229.671c-1.376 5.77-10.214 11.047-15.752 12.511-5.769 1.536-14.165 5.33-14.165 5.33 8.537 2.065 18.081-.477 24.607-3.512l-1.376 1.465s-3.686 3.265-10.972 6.07l-3.175 1.112a167.292 167.292 0 00-13.688 6.159c3.951.935 8.096.618 11.977-.318-5.503 4.536-6.297 12.247-6.544 20.735h-13.953c-1.253-2.541-3.916-5.153-9.385-6.6-10.442-2.823-16.405-.353-18.927-6.529 0 0-1.147 10.482 6.527 12.247 1.446.335 3.034.618 4.692.882h-37.838c-.493-3.123-1.005-6.282-1.605-9.511l.141.035c7.092 2.118 18.081 2.365 20.851 9.247 0 0 2.628-11.982-9.367-16.147-6.068-2.082-10.478-1.712-13.459-2.947-.706-3.476-1.464-7.094-2.417-10.923l1.552.67c7.162 2.118 18.134 2.382 20.851 9.247 0 0 2.628-11.982-9.385-16.112-7.356-2.594-12.365-1.464-15.311-4.129-5.204-14.629-17.834-31.217-27.606-42.67-6.915-7.606-19.281-19.994-19.281-19.994-10.248-10.182-13.865-17.929-15.064-22.588 3.069 3.159 6.985 7.57 12.454 13.729 11.395 12.671 26.283 27.212 26.283 27.212 5.098 4.411 14.394 9.776 23.461 10.517 1.235.088 2.54.318 3.916.441 3.792.212 16.37.036 25.701-10.57-4.851 2.029-12.93 2.559-12.93 2.559-7.391.882-17.305.053-28.665-5.03-6.562-2.894-12.771-11.752-15.152-15.847 8.149.565 13.071.318 13.071.318-11.007-3.794-20.233-10.747-26.989-17.17-3.863-4.324-12.454-12.688-19.545-13.553-7.162-.883-11.219.653-11.219.653-1.093 4.747-5.062 19.341-24.766 25.058-2.999.847-6.086 1.5-9.155 1.853-.3.036-27.942 1.8-36.391-26.294 0 0-3.687 7.042-4.057 14.171-4.322-1.73-7.162-2.365-8.15-2.541-10.69-1.8-19.157-.671-19.157-.671-18.292-41.047.318-56.664 10.479-79.57 10.072-22.853 11.889-45.758 11.889-45.758 21.08-15.512 42.07-18.724 42.07-18.724 8.044 9.812 8.309 20.259 8.309 20.259-12.895 10.27-37.802 9.83-37.802 9.83s.141 8.576-9.243 28.146c-9.385 19.518-2.54 42.388-2.54 42.388-1.288-6.812 3.774-27.353 3.774-27.353s7.162-1.5 8.538 18.053c1.376 19.553-24.131 37.694-24.131 37.694s23.231-7.976 29.44-19.606c0 0 13.918-11.011 31.964-6.988 18.098 4.006 30.093 16.959 30.093 16.959s-2.293-9.777-10.972-18.494l.441-.759c1.994-2.947 10.62-13.518 29.3-10.253 8.238 1.447 20.321 7.888 31.999 15.318.229-5.506 1.711-10.783 2.469-13.218-9.067-5.735-24.131-13.376-36.532-14.488-19.139-1.677-33.445 15.706-33.445 15.706-20.074-10.535-41.453.388-41.453.388 1.534-7.624-3.952-18.97-5.627-25.659-1.676-6.688 3.475-26.505 3.475-26.505 15.664 1.5 30.816-10.13 38.507-17.136 7.691-7.04-4.762-27.776-6.526-30.776-1.711-2.982-13.071-6.44-27.06-.67-13.918 5.735-38.243 15.37-38.102 29.135.177 13.73.935 21.264-19.421 55.835-20.41 34.57 1.058 75.899 5.592 79.57 4.533 3.705 9.472-4.5 47.133 11.188 31.787 13.253 59.376-1.8 64.297-4.765 2.858 3.565 7.091 7.694 13.195 12.247l.053.124a131.674 131.674 0 004.621 3.529c6.174 4.835 10.955 9 14.588 12.406 0 0 8.662 6.794 16.388 19.87.017.035.053.071.07.124v.017c5.381 8.806 13.142 26.171 13.142 53.012H44.645l10.566 16.447h369.201l11.343-16.447H298.852c4.375-22.483 12.154-42.635 25.666-59.7 10.654-13.464 23.778-30.3 30.729-46.2 0 0 34.097 11.63 64.314-11.399 32.44-24.777 39.266-18.089 42.741-22.8 3.511-4.73 13.76-50.153-14.711-78.458zm-264.262 17.1c0 .052 0 .088-.018.14 0 .018-.017.036-.017.053 0 .018 0 .036-.018.071-.017.018-.017.035-.035.053-.335.688-1.094.565-1.729.318-.159-.07-.317-.142-.458-.212a4.783 4.783 0 00-1.129-.282c-.706-.071-1.147.07-1.694.07h-.035c-.071 0-.282 0-.512-.07-.035 0-.07 0-.105-.018-.053-.018-.071-.035-.106-.053-.318-.141-.618-.388-.618-.918 0-1.464 1.676-3.388 2.682-5.77.705-1.553 1.587-2.806 2.257-3.741a5.36 5.36 0 00.494-.742 2.49 2.49 0 01.141-.211c0-.035.036-.053.036-.088.035.035.035.052.035.088a52.625 52.625 0 00-.141 2.03 32.154 32.154 0 00-.053 1.887c-.053 1.977.053 4.094.617 5.012.406.67.582 1.377.565 1.941a1.845 1.845 0 00-.159.441zm31.346 39.105s.97 1.024 1.2 3.088c0 0 3.069-5.294 2.857-9.247 0 0 1.376 1.147 1.676 3.088 0 0 1.094-3.917.917-5.947l.618 2.242s1.005-3.442 1.146-5.118c0 0 1.323 1.465 1.711 3.159l1.623-3.335c2.452-5.859 4.304-14.312 4.304-14.489l-.229-1.094.758.653s0-1.817-.582-2.823l.847.564-.653-1.64.706.264s-.318-1.147-.318-2.03l1.182 1.095.388-4.36s1.288 2.683 1.147 7.748l-.529-.935s.476 3.335-.318 6l-.67-1.818s0 .582-.265 1.412c0 0-1.587 11.629-8.061 20.329l-.67-4.747s-1.464 8.717-5.01 12.141c0 0 1.235-2.594.706-5.153 0 0-1.994 7.888-6.474 12.229-.036-.07 2.346-4.57 1.993-11.276z" fill="url(#paint11_linear)"/><defs><linearGradient id="paint0_linear" x1="409.261" y1="0" x2="51.275" y2="446.443" gradientUnits="userSpaceOnUse"><stop stop-color="#362A00" stop-opacity="0"/><stop offset=".156" stop-color="#2D2300" stop-opacity=".56"/><stop offset=".296" stop-color="#624D02"/><stop offset=".494" stop-color="#FFC53F"/><stop offset=".739" stop-color="#624D02" stop-opacity=".54"/><stop offset="1" stop-color="#2D2300" stop-opacity="0"/></linearGradient><linearGradient id="paint1_linear" x1="409.261" y1="0" x2="51.275" y2="446.443" gradientUnits="userSpaceOnUse"><stop stop-color="#362A00" stop-opacity="0"/><stop offset=".156" stop-color="#2D2300" stop-opacity=".56"/><stop offset=".296" stop-color="#624D02"/><stop offset=".494" stop-color="#FFC53F"/><stop offset=".739" stop-color="#624D02" stop-opacity=".54"/><stop offset="1" stop-color="#2D2300" stop-opacity="0"/></linearGradient><linearGradient id="paint2_linear" x1="409.261" y1="0" x2="51.275" y2="446.443" gradientUnits="userSpaceOnUse"><stop stop-color="#362A00" stop-opacity="0"/><stop offset=".156" stop-color="#2D2300" stop-opacity=".56"/><stop offset=".296" stop-color="#624D02"/><stop offset=".494" stop-color="#FFC53F"/><stop offset=".739" stop-color="#624D02" stop-opacity=".54"/><stop offset="1" stop-color="#2D2300" stop-opacity="0"/></linearGradient><linearGradient id="paint3_linear" x1="409.261" y1="0" x2="51.275" y2="446.443" gradientUnits="userSpaceOnUse"><stop stop-color="#362A00" stop-opacity="0"/><stop offset=".156" stop-color="#2D2300" stop-opacity=".56"/><stop offset=".296" stop-color="#624D02"/><stop offset=".494" stop-color="#FFC53F"/><stop offset=".739" stop-color="#624D02" stop-opacity=".54"/><stop offset="1" stop-color="#2D2300" stop-opacity="0"/></linearGradient><linearGradient id="paint4_linear" x1="409.261" y1="0" x2="51.275" y2="446.443" gradientUnits="userSpaceOnUse"><stop stop-color="#362A00" stop-opacity="0"/><stop offset=".156" stop-color="#2D2300" stop-opacity=".56"/><stop offset=".296" stop-color="#624D02"/><stop offset=".494" stop-color="#FFC53F"/><stop offset=".739" stop-color="#624D02" stop-opacity=".54"/><stop offset="1" stop-color="#2D2300" stop-opacity="0"/></linearGradient><linearGradient id="paint5_linear" x1="409.261" y1="0" x2="51.275" y2="446.443" gradientUnits="userSpaceOnUse"><stop stop-color="#362A00" stop-opacity="0"/><stop offset=".156" stop-color="#2D2300" stop-opacity=".56"/><stop offset=".296" stop-color="#624D02"/><stop offset=".494" stop-color="#FFC53F"/><stop offset=".739" stop-color="#624D02" stop-opacity=".54"/><stop offset="1" stop-color="#2D2300" stop-opacity="0"/></linearGradient><linearGradient id="paint6_linear" x1="409.261" y1="0" x2="51.275" y2="446.443" gradientUnits="userSpaceOnUse"><stop stop-color="#362A00" stop-opacity="0"/><stop offset=".156" stop-color="#2D2300" stop-opacity=".56"/><stop offset=".296" stop-color="#624D02"/><stop offset=".494" stop-color="#FFC53F"/><stop offset=".739" stop-color="#624D02" stop-opacity=".54"/><stop offset="1" stop-color="#2D2300" stop-opacity="0"/></linearGradient><linearGradient id="paint7_linear" x1="409.261" y1="0" x2="51.275" y2="446.443" gradientUnits="userSpaceOnUse"><stop stop-color="#362A00" stop-opacity="0"/><stop offset=".156" stop-color="#2D2300" stop-opacity=".56"/><stop offset=".296" stop-color="#624D02"/><stop offset=".494" stop-color="#FFC53F"/><stop offset=".739" stop-color="#624D02" stop-opacity=".54"/><stop offset="1" stop-color="#2D2300" stop-opacity="0"/></linearGradient><linearGradient id="paint8_linear" x1="409.261" y1="0" x2="51.275" y2="446.443" gradientUnits="userSpaceOnUse"><stop stop-color="#362A00" stop-opacity="0"/><stop offset=".156" stop-color="#2D2300" stop-opacity=".56"/><stop offset=".296" stop-color="#624D02"/><stop offset=".494" stop-color="#FFC53F"/><stop offset=".739" stop-color="#624D02" stop-opacity=".54"/><stop offset="1" stop-color="#2D2300" stop-opacity="0"/></linearGradient><linearGradient id="paint9_linear" x1="409.261" y1="0" x2="51.275" y2="446.443" gradientUnits="userSpaceOnUse"><stop stop-color="#362A00" stop-opacity="0"/><stop offset=".156" stop-color="#2D2300" stop-opacity=".56"/><stop offset=".296" stop-color="#624D02"/><stop offset=".494" stop-color="#FFC53F"/><stop offset=".739" stop-color="#624D02" stop-opacity=".54"/><stop offset="1" stop-color="#2D2300" stop-opacity="0"/></linearGradient><linearGradient id="paint10_linear" x1="409.261" y1="0" x2="51.275" y2="446.443" gradientUnits="userSpaceOnUse"><stop stop-color="#362A00" stop-opacity="0"/><stop offset=".156" stop-color="#2D2300" stop-opacity=".56"/><stop offset=".296" stop-color="#624D02"/><stop offset=".494" stop-color="#FFC53F"/><stop offset=".739" stop-color="#624D02" stop-opacity=".54"/><stop offset="1" stop-color="#2D2300" stop-opacity="0"/></linearGradient><linearGradient id="paint11_linear" x1="409.261" y1="0" x2="51.275" y2="446.443" gradientUnits="userSpaceOnUse"><stop stop-color="#362A00" stop-opacity="0"/><stop offset=".156" stop-color="#2D2300" stop-opacity=".56"/><stop offset=".296" stop-color="#624D02"/><stop offset=".494" stop-color="#FFC53F"/><stop offset=".739" stop-color="#624D02" stop-opacity=".54"/><stop offset="1" stop-color="#2D2300" stop-opacity="0"/></linearGradient></defs></svg>