<svg width="116" height="116" fill="none" xmlns="http://www.w3.org/2000/svg"><g opacity=".48"><g opacity=".16" fill="#FFC53F"><circle cx="1.706" cy="1.706" r="1.706"/><circle cx="11.94" cy="1.706" r="1.706"/><circle cx="22.176" cy="1.706" r="1.706"/><circle cx="32.411" cy="1.706" r="1.706"/><circle cx="42.648" cy="1.706" r="1.706"/><circle cx="52.882" cy="1.706" r="1.706"/><circle cx="63.117" cy="1.706" r="1.706"/><circle cx="73.353" cy="1.706" r="1.706"/><circle cx="83.588" cy="1.706" r="1.706"/><circle cx="93.825" cy="1.706" r="1.706"/><circle cx="104.059" cy="1.706" r="1.706"/><circle cx="114.294" cy="1.706" r="1.706"/><circle cx="1.706" cy="11.942" r="1.706"/><circle cx="11.94" cy="11.942" r="1.706"/><circle cx="22.176" cy="11.942" r="1.706"/><circle cx="32.411" cy="11.942" r="1.706"/><circle cx="42.648" cy="11.942" r="1.706"/><circle cx="52.882" cy="11.942" r="1.706"/><circle cx="63.117" cy="11.942" r="1.706"/><circle cx="73.353" cy="11.942" r="1.706"/><circle cx="83.588" cy="11.942" r="1.706"/><circle cx="93.825" cy="11.942" r="1.706"/><circle cx="104.059" cy="11.942" r="1.706"/><circle cx="114.294" cy="11.942" r="1.706"/><circle cx="1.706" cy="22.177" r="1.706"/><circle cx="11.94" cy="22.177" r="1.706"/><circle cx="22.176" cy="22.177" r="1.706"/><circle cx="32.411" cy="22.177" r="1.706"/><circle cx="42.648" cy="22.177" r="1.706"/><circle cx="52.882" cy="22.177" r="1.706"/><circle cx="63.117" cy="22.177" r="1.706"/><circle cx="73.353" cy="22.177" r="1.706"/><circle cx="83.588" cy="22.177" r="1.706"/><circle cx="93.825" cy="22.177" r="1.706"/><circle cx="104.059" cy="22.177" r="1.706"/><circle cx="114.294" cy="22.177" r="1.706"/><circle cx="1.706" cy="32.413" r="1.706"/><circle cx="11.94" cy="32.412" r="1.706"/><circle cx="22.176" cy="32.412" r="1.706"/><circle cx="32.411" cy="32.412" r="1.706"/><circle cx="42.648" cy="32.412" r="1.706"/><circle cx="52.882" cy="32.412" r="1.706"/><circle cx="63.117" cy="32.412" r="1.706"/><circle cx="73.353" cy="32.412" r="1.706"/><circle cx="83.588" cy="32.412" r="1.706"/><circle cx="93.825" cy="32.412" r="1.706"/><circle cx="104.059" cy="32.412" r="1.706"/><circle cx="114.294" cy="32.412" r="1.706"/><circle cx="1.706" cy="42.647" r="1.706"/><circle cx="11.94" cy="42.647" r="1.706"/><circle cx="22.176" cy="42.647" r="1.706"/><circle cx="32.411" cy="42.647" r="1.706"/><circle cx="42.648" cy="42.647" r="1.706"/><circle cx="52.882" cy="42.647" r="1.706"/><circle cx="63.117" cy="42.647" r="1.706"/><circle cx="73.353" cy="42.647" r="1.706"/><circle cx="83.588" cy="42.647" r="1.706"/><circle cx="93.825" cy="42.647" r="1.706"/><circle cx="104.059" cy="42.647" r="1.706"/><circle cx="114.294" cy="42.647" r="1.706"/><circle cx="1.706" cy="52.883" r="1.706"/><circle cx="11.94" cy="52.883" r="1.706"/><circle cx="22.176" cy="52.883" r="1.706"/><circle cx="32.411" cy="52.883" r="1.706"/><circle cx="42.648" cy="52.883" r="1.706"/><circle cx="52.882" cy="52.883" r="1.706"/><circle cx="63.117" cy="52.883" r="1.706"/><circle cx="73.353" cy="52.883" r="1.706"/><circle cx="83.588" cy="52.883" r="1.706"/><circle cx="93.825" cy="52.883" r="1.706"/><circle cx="104.059" cy="52.883" r="1.706"/><circle cx="114.294" cy="52.883" r="1.706"/><circle cx="1.706" cy="63.118" r="1.706"/><circle cx="11.94" cy="63.118" r="1.706"/><circle cx="22.176" cy="63.118" r="1.706"/><circle cx="32.411" cy="63.118" r="1.706"/><circle cx="42.648" cy="63.118" r="1.706"/><circle cx="52.882" cy="63.118" r="1.706"/><circle cx="63.117" cy="63.118" r="1.706"/><circle cx="73.353" cy="63.118" r="1.706"/><circle cx="83.588" cy="63.118" r="1.706"/><circle cx="93.825" cy="63.118" r="1.706"/><circle cx="104.059" cy="63.118" r="1.706"/><circle cx="114.294" cy="63.118" r="1.706"/><circle cx="1.706" cy="73.354" r="1.706"/><circle cx="11.94" cy="73.353" r="1.706"/><circle cx="22.176" cy="73.353" r="1.706"/><circle cx="32.411" cy="73.353" r="1.706"/><circle cx="42.648" cy="73.353" r="1.706"/><circle cx="52.882" cy="73.353" r="1.706"/><circle cx="63.117" cy="73.353" r="1.706"/><circle cx="73.353" cy="73.353" r="1.706"/><circle cx="83.588" cy="73.353" r="1.706"/><circle cx="93.825" cy="73.353" r="1.706"/><circle cx="104.059" cy="73.353" r="1.706"/><circle cx="114.294" cy="73.353" r="1.706"/><circle cx="1.706" cy="83.589" r="1.706"/><circle cx="11.94" cy="83.589" r="1.706"/><circle cx="22.176" cy="83.589" r="1.706"/><circle cx="32.411" cy="83.589" r="1.706"/><circle cx="42.648" cy="83.589" r="1.706"/><circle cx="52.882" cy="83.589" r="1.706"/><circle cx="63.117" cy="83.589" r="1.706"/><circle cx="73.353" cy="83.589" r="1.706"/><circle cx="83.588" cy="83.589" r="1.706"/><circle cx="93.825" cy="83.589" r="1.706"/><circle cx="104.059" cy="83.589" r="1.706"/><circle cx="114.294" cy="83.589" r="1.706"/><circle cx="1.706" cy="93.824" r="1.706"/><circle cx="11.94" cy="93.824" r="1.706"/><circle cx="22.176" cy="93.824" r="1.706"/><circle cx="32.411" cy="93.824" r="1.706"/><circle cx="42.648" cy="93.824" r="1.706"/><circle cx="52.882" cy="93.824" r="1.706"/><circle cx="63.117" cy="93.824" r="1.706"/><circle cx="73.353" cy="93.824" r="1.706"/><circle cx="83.588" cy="93.824" r="1.706"/><circle cx="93.825" cy="93.824" r="1.706"/><circle cx="104.059" cy="93.824" r="1.706"/><circle cx="114.294" cy="93.824" r="1.706"/><circle cx="1.706" cy="104.06" r="1.706"/><circle cx="11.94" cy="104.059" r="1.706"/><circle cx="22.176" cy="104.059" r="1.706"/><circle cx="32.411" cy="104.059" r="1.706"/><circle cx="42.648" cy="104.059" r="1.706"/><circle cx="52.882" cy="104.059" r="1.706"/><circle cx="63.117" cy="104.059" r="1.706"/><circle cx="73.353" cy="104.059" r="1.706"/><circle cx="83.588" cy="104.059" r="1.706"/><circle cx="93.825" cy="104.059" r="1.706"/><circle cx="104.059" cy="104.059" r="1.706"/><circle cx="114.294" cy="104.059" r="1.706"/><circle cx="1.706" cy="114.294" r="1.706"/><circle cx="11.94" cy="114.294" r="1.706"/><circle cx="22.176" cy="114.294" r="1.706"/><circle cx="32.411" cy="114.294" r="1.706"/><circle cx="42.648" cy="114.294" r="1.706"/><circle cx="52.882" cy="114.294" r="1.706"/><circle cx="63.117" cy="114.294" r="1.706"/><circle cx="73.353" cy="114.294" r="1.706"/><circle cx="83.588" cy="114.294" r="1.706"/><circle cx="93.825" cy="114.294" r="1.706"/><circle cx="104.059" cy="114.294" r="1.706"/><circle cx="114.294" cy="114.294" r="1.706"/></g></g></svg>