<svg width="106" height="101" viewBox="0 0 106 101" fill="none" xmlns="http://www.w3.org/2000/svg">
<path fill-rule="evenodd" clip-rule="evenodd" d="M42.711 12.6774L42.5857 12.6692C42.2103 10.6058 42.5509 9.31872 43.7813 7.92674C46.3464 5.07285 49.6484 4.50626 53.2354 4.91197C55.7032 5.19176 57.5314 6.52777 58.4351 8.83607C59.1372 10.6337 59.6516 12.5433 60.0201 14.4459C60.3912 16.3937 60.2988 18.3574 60.2063 20.322V20.3222V20.3223V20.3224V20.3225V20.3226V20.3227V20.3228V20.323C60.1619 21.2648 60.1176 22.2069 60.1243 23.1475C60.1591 28.0719 58.5811 32.3457 55.6615 36.2069C55.5734 36.3235 55.5101 36.4587 55.4467 36.594L55.4467 36.5941C55.415 36.6616 55.3834 36.7292 55.3486 36.7945C55.3938 36.8364 55.4407 36.8784 55.4876 36.9203C55.5346 36.9623 55.5815 37.0043 55.6267 37.0463L55.6443 37.0335L55.6484 37.0305C57.6084 35.6018 59.5689 34.1728 61.6467 32.6605C61.9595 33.1432 62.3002 33.6678 62.7103 34.2973C62.9664 34.0464 63.2078 33.807 63.4424 33.5743L63.443 33.5737L63.4434 33.5733C63.6924 33.3264 63.9338 33.0869 64.1771 32.8494C66.6587 30.4362 69.203 28.0999 72.1782 26.2952C73.6311 25.4139 75.1743 24.7773 76.9122 24.9312C78.1218 25.0361 79.3035 25.3019 80.0682 26.3721C79.9667 26.6871 79.8467 26.9933 79.7264 27.3L79.7264 27.3002C79.3526 28.2537 78.9771 29.2118 79.1506 30.4501C79.2482 30.324 79.3385 30.2072 79.4231 30.0977L79.4234 30.0973L79.4237 30.097L79.4243 30.0961L79.4251 30.0951L79.4269 30.0928C79.7439 29.6825 79.9803 29.3765 80.2211 29.0792C81.396 27.6242 82.7306 26.3512 84.4129 25.5468C87.2352 24.1968 90.0158 23.9729 92.7825 25.8475C94.437 26.9737 96.3695 27.3654 98.3646 27.4424C98.1141 27.1856 97.8315 27.0031 97.5517 26.8225C97.4199 26.7374 97.2888 26.6528 97.162 26.561C96.9226 26.3896 96.6811 26.2202 96.4396 26.0508C95.5871 25.4528 94.7335 24.854 93.9643 24.1618C92.3237 22.6789 91.7815 20.7063 91.8371 18.5449C91.858 17.7965 91.9275 17.013 92.8729 16.5304C93.5959 18.0063 94.2632 19.3773 94.9305 20.7553C95.0279 18.419 94.4509 16.2716 93.2066 14.383C92.1402 12.7612 90.9953 11.1909 89.839 9.60474L89.8389 9.60467L89.8388 9.60456L89.8388 9.60443C89.3443 8.92628 88.8478 8.24522 88.3544 7.55602C88.1478 7.59246 87.9326 7.64007 87.7116 7.68899C87.2114 7.79968 86.6811 7.91704 86.1508 7.92674C84.4407 7.95472 82.7237 7.89177 81.0136 7.80783C80.1516 7.76586 79.7623 7.25524 79.7832 6.3529C79.811 5.10782 79.9709 3.9117 80.5965 2.70859C80.7537 2.69713 80.9117 2.68116 81.0704 2.66511C81.3959 2.6322 81.7245 2.59896 82.0563 2.60367C84.5172 2.61766 86.9155 3.05134 89.272 3.76481C90.2452 4.06559 90.8361 4.56922 91.2462 5.56249C92.8799 9.52856 95.153 13.0889 98.1769 16.1457C98.9207 16.9011 99.6228 17.6985 100.283 18.5309C103.057 22.0214 103.53 25.9874 102.654 30.3033C100.179 30.7999 97.9197 31.6602 95.9663 33.353C95.8701 32.949 95.7865 32.6109 95.7004 32.2624L95.7002 32.2619C95.6432 32.0313 95.5851 31.7961 95.5214 31.5343C91.4617 39.4945 83.4675 39.1168 80.0195 33.9895C79.9036 34.1148 79.7936 34.2562 79.6831 34.3983L79.6829 34.3984C79.4356 34.7163 79.1853 35.038 78.8587 35.1926C74.7225 37.1162 70.5655 38.3054 66.3112 34.8149C66.29 35.1443 66.256 35.4503 66.2239 35.7399L66.2239 35.74C66.1612 36.3053 66.1054 36.8078 66.1652 37.2981C66.478 39.7673 65.2059 41.3201 63.3498 42.5862C63.1059 42.7513 62.8677 42.925 62.5629 43.1471L62.5625 43.1474C62.3896 43.2734 62.1953 43.415 61.9665 43.5795C62.5211 43.6299 62.98 43.6729 63.4208 43.7142C63.8364 43.7531 64.2359 43.7906 64.6845 43.8313C63.6348 45.1463 62.5435 45.9717 61.2366 46.4963C58.0528 47.7694 54.9176 47.0349 51.72 46.2305L51.7556 46.2817C52.1683 46.8744 52.5917 47.4826 53.1728 47.7274C54.3824 48.238 55.6615 48.7207 56.9544 48.9025C61.0836 49.4761 64.5316 48.224 66.9855 44.6847C67.2064 44.3648 67.4106 44.0312 67.6147 43.6978C67.9372 43.171 68.2595 42.6447 68.6469 42.1735C69.5645 41.0613 70.5446 39.9911 71.5943 39.0118C71.8846 38.7437 72.2953 38.6034 72.7061 38.4631C72.8956 38.3984 73.085 38.3336 73.2627 38.2564C72.067 40.117 71.4205 42.0056 71.3997 44.0691C71.3719 47.4056 69.7105 49.644 66.8742 51.1339C66.4435 51.3595 66.0015 51.5655 65.5485 51.7767C65.2851 51.8995 65.018 52.024 64.7471 52.1551C65.1503 52.4 65.477 52.6028 65.7968 52.8057C65.349 53.6631 64.5912 53.9843 63.8109 54.315C63.3435 54.5132 62.868 54.7147 62.4461 55.037C63.7801 55.2454 64.8405 54.7723 65.9531 54.2759C66.4466 54.0557 66.9504 53.831 67.4929 53.659C66.4386 55.3316 64.8977 55.8909 63.3022 56.4699C62.5624 56.7385 61.8108 57.0112 61.0906 57.4013C62.3483 57.7528 63.419 57.5607 64.5823 57.3521C64.9235 57.2909 65.2727 57.2282 65.6369 57.1774C64.7738 57.8598 63.8297 58.2298 62.8994 58.5943C61.9415 58.9697 60.9982 59.3393 60.173 60.0383C60.586 60.0917 60.9267 60.1347 61.212 60.1707L61.2123 60.1707L61.2144 60.171L61.215 60.1711C61.4519 60.2009 61.6504 60.226 61.8205 60.2482C61.6547 60.9605 61.4959 61.6504 61.3396 62.329L61.3393 62.3303L61.3376 62.3376C61.1799 63.0221 61.0249 63.6951 60.8681 64.3681C58.8115 64.7119 58.7092 64.6502 57.1418 63.7048L57.0587 63.6547C56.4092 63.2625 55.6262 63.0719 54.8742 62.8888L54.8741 62.8888L54.7161 62.8503C54.0339 62.6834 53.3421 62.5653 52.5856 62.4362C52.2319 62.3758 51.8642 62.313 51.4767 62.2417C51.6296 62.6405 51.7756 63.0183 51.9156 63.3803L51.9162 63.3819C52.0558 63.7433 52.1894 64.0889 52.3178 64.4241H45.5748C45.548 64.1543 45.5225 63.9037 45.4955 63.6388L45.4952 63.6367L45.4949 63.6329L45.4944 63.6285L45.4937 63.621L45.4936 63.6201L45.4931 63.6153C45.4578 63.2689 45.4198 62.8965 45.3732 62.4236C46.1884 62.6891 46.9477 62.9347 47.6854 63.1733L47.6931 63.1758L47.6974 63.1772L47.6986 63.1776L47.7072 63.1804L47.7079 63.1806C48.4783 63.4298 49.2256 63.6715 49.989 63.9205C49.9145 61.2135 48.0082 60.8354 46.0745 60.4519C45.6648 60.3707 45.2538 60.2892 44.8588 60.1852C44.7128 59.4787 44.5738 58.8142 44.3514 57.772C45.4238 58.1251 46.3843 58.4377 47.3029 58.7365L47.3049 58.7372L47.311 58.7392L47.3151 58.7405L47.3158 58.7407L47.3187 58.7417C48.0141 58.968 48.6855 59.1864 49.3634 59.4088C49.3634 57.9469 48.696 56.9116 47.2779 56.408C46.7079 56.2052 46.1031 56.0163 45.5053 55.9743C44.0524 55.8694 43.3851 55.044 43.1487 53.4982L44.151 53.7641C45.6844 54.171 47.1623 54.5632 48.6543 54.9601C48.6543 54.9601 48.7169 54.7362 48.6752 54.5334C48.3415 52.7637 47.0555 52.1132 45.4775 51.8124C44.9311 51.7093 44.3847 51.6083 43.8372 51.5071L43.8368 51.507L43.835 51.5067L43.832 51.5061L43.8306 51.5059L43.8291 51.5056L43.8264 51.5051L43.8253 51.5049L43.8229 51.5045C43.3721 51.4211 42.9205 51.3377 42.4675 51.2528C42.4498 51.3631 42.4285 51.4843 42.4 51.6467L42.3997 51.6482L42.3995 51.6494L42.3995 51.6497L42.3993 51.6507C42.3719 51.8069 42.3377 52.0011 42.2937 52.2601C39.9371 48.3849 37.1704 45.1883 34.1604 42.2015C33.2081 41.2572 32.3113 40.2569 31.4702 39.2217C31.1182 38.7898 30.8397 38.3007 30.5606 37.8104L30.5606 37.8103L30.5605 37.8103L30.5605 37.8102L30.5605 37.8102L30.5604 37.8101L30.5604 37.8101L30.5604 37.81L30.5603 37.8099L30.5603 37.8099C30.4372 37.5936 30.3139 37.3771 30.1842 37.1652C30.789 37.361 31.1643 37.7318 31.5258 38.1165C32.2164 38.8439 32.8982 39.5815 33.5803 40.3193L33.5806 40.3197L33.5809 40.32L33.5813 40.3203L33.5816 40.3207L33.5819 40.321L33.5822 40.3213L33.5825 40.3217L33.5828 40.322L33.5828 40.322L33.5828 40.322L33.5829 40.3221L33.5829 40.3221L33.5829 40.3221L33.5829 40.3221L33.583 40.3221L33.583 40.3222C35.0972 41.9601 36.6126 43.5994 38.2271 45.1323C40.966 47.7274 44.2262 48.6857 47.9105 47.3777C48.71 47.0979 49.5233 46.7271 49.9751 45.7968C43.4129 46.888 39.2768 44.8245 38.1298 41.558C38.665 41.502 39.1864 41.446 39.673 41.3901C39.2618 41.0781 38.8521 40.7685 38.4441 40.4601L38.4431 40.4593L38.4428 40.4591C37.113 39.4539 35.8003 38.4617 34.508 37.445C34.1409 37.1596 33.8064 36.8313 33.4713 36.5025C33.248 36.2835 33.0245 36.0642 32.791 35.8572C31.3451 34.5771 29.6906 34.1994 27.7164 34.71C26.5972 38.5292 23.8305 40.4598 19.9863 40.6556C16.0518 40.8585 13.3963 38.781 11.8044 34.8499L11.4337 35.9321L11.4336 35.9324L11.4329 35.9343C11.1982 36.6196 11.0071 37.1777 10.8381 37.6688C10.0562 37.5923 9.28806 37.5167 8.53008 37.4421L8.5259 37.4417L8.52228 37.4413L8.50848 37.44L8.50164 37.4393L8.48081 37.4372L8.47847 37.437C7.24642 37.3158 6.04093 37.1972 4.84593 37.0813C3.29574 33.8986 2.71182 30.8698 3.40697 27.967C3.7893 26.3582 4.40799 24.7493 5.21436 23.3084C7.57092 19.1115 9.17672 14.6978 9.79541 9.89929C9.85102 9.45861 10.1291 8.90602 10.4767 8.6612C13.1321 6.77959 16.0448 5.47155 19.2634 4.85601C20.1601 5.87725 20.6259 7.00342 20.9665 8.19255C21.2028 9.01094 21.0151 9.64748 20.1879 9.95525C19.9849 10.032 19.7821 10.1105 19.5793 10.189L19.5792 10.189C18.6916 10.5325 17.8026 10.8765 16.8859 11.0814C15.9514 11.2909 14.9967 11.3986 14.1063 11.4991C13.7184 11.5428 13.3427 11.5852 12.9861 11.634C12.6724 12.4469 12.361 13.2447 12.0533 14.033C11.4475 15.585 10.856 17.1004 10.289 18.6219C9.37831 21.0771 9.16977 23.5952 9.87882 26.4771L10.2492 24.6333L10.2497 24.6309L10.2505 24.6269L10.2508 24.6255C10.472 23.5241 10.6759 22.5089 10.8798 21.4967C11.0119 21.4618 11.1509 21.4268 11.29 21.3918C11.3947 21.5397 11.5129 21.6826 11.631 21.8254C11.8815 22.128 12.1312 22.4298 12.2493 22.7768C12.9653 24.8683 13.0557 26.9877 11.8322 28.9183C11.2695 29.802 10.5914 30.6136 9.91534 31.4229C9.69774 31.6834 9.48036 31.9436 9.26709 32.2058C9.04531 32.4812 8.79151 32.7276 8.53828 32.9734L8.53809 32.9736L8.53801 32.9737L8.53798 32.9737C8.41826 33.09 8.29867 33.206 8.18266 33.325C10.3307 32.6745 12.2423 31.7372 13.6883 30.0165C14.0358 29.5968 14.4599 29.1981 14.9326 28.9393C16.733 27.932 18.6516 27.5193 20.7162 27.869C22.8503 28.2328 24.7133 29.1911 26.4373 30.4641C26.6825 30.6445 26.9374 30.8087 27.191 30.9721L27.191 30.9722L27.1911 30.9722L27.1912 30.9723L27.1918 30.9727C27.3117 31.0499 27.4314 31.127 27.5496 31.2056L27.5675 31.1861L27.5676 31.1859L27.5678 31.1857L27.5679 31.1856C27.6443 31.1023 27.7156 31.0245 27.7929 30.9468C27.4063 30.3099 27.0217 29.6709 26.6291 29.0184C26.3016 28.4743 25.9686 27.9208 25.624 27.3514C27.2506 25.3229 29.3778 24.6794 31.8525 25.0641C33.8787 25.3762 35.6292 26.3757 37.3777 27.3739L37.6571 27.5333C38.0827 27.7738 38.5131 28.0094 39.01 28.2814L39.3046 28.4426C39.4652 27.5452 39.5994 26.781 39.7281 26.0475L39.7288 26.0438L39.8259 25.4908C37.8795 24.2177 35.9122 23.3364 33.8407 22.6649C30.9558 21.7276 28.3629 22.3291 25.9855 24.1198C25.5661 24.4375 25.1658 24.7809 24.7458 25.1413C24.5462 25.3126 24.3421 25.4877 24.1294 25.6657C21.1889 24.4066 18.1998 24.5745 15.2384 25.6447C15.0745 25.0727 14.9027 24.5131 14.7331 23.9606C14.349 22.7092 13.9759 21.4939 13.73 20.2517C13.3198 18.1882 13.869 16.1877 14.4668 14.2851C17.8522 13.9423 20.1114 12.9071 22.5653 10.7527C23.4621 9.96224 23.8653 9.05991 23.4968 7.92674C23.2167 7.07642 22.8864 6.24188 22.5565 5.40828C22.3952 5.00071 22.2339 4.59336 22.0787 4.1845C21.6755 3.12828 20.8483 2.60367 19.7778 2.52672L19.7579 2.5251C18.992 2.46259 18.1728 2.39574 17.4699 2.61766C15.6764 3.18424 13.8898 3.81378 12.1867 4.61818C10.8381 5.25471 9.57991 6.10808 8.3773 6.99643C7.40409 7.7169 6.85492 8.75913 6.92443 10.0462C7.06346 12.8091 6.26404 15.3483 5.00582 17.7615C4.61782 18.5042 4.21122 19.2354 3.80485 19.9662L3.80483 19.9663L3.80481 19.9663L3.8048 19.9663C3.31565 20.846 2.82683 21.7251 2.37119 22.6229C-0.576246 28.4566 0.320499 34.0945 3.26794 39.6204C3.60856 40.2639 4.15078 40.6206 4.89459 40.5857C8.21046 40.4318 11.2413 41.558 14.2305 42.789C18.7142 44.6287 23.1284 44.4188 27.5079 42.4743C27.9114 42.2966 28.3208 42.1304 28.6631 41.9915L28.6636 41.9913L28.7661 41.9497C29.433 42.5089 30.093 43.0597 30.747 43.6054L30.7496 43.6076L30.7497 43.6077C32.5488 45.1091 34.3027 46.5727 36.0304 48.0702C39.0752 50.7072 41.0146 54.0577 41.9739 57.9609C42.4953 60.0593 42.9263 62.1857 42.6274 64.564H10.6574C10.8252 64.8407 10.982 65.0844 11.1261 65.3082C11.4118 65.7521 11.6473 66.118 11.8183 66.5086C12.4648 67.9915 13.5214 68.3552 15.1133 68.3552C36.987 68.3086 58.8607 68.3105 80.7344 68.3125C85.1096 68.3128 89.4848 68.3132 93.86 68.3132C94.0028 68.3132 94.1461 68.3167 94.2895 68.3201H94.2898H94.29H94.2902H94.2903H94.2904H94.2904H94.2905H94.2906H94.2906H94.2907C94.6497 68.3286 95.0091 68.3372 95.3615 68.2923C95.6674 68.2573 96.0636 68.1454 96.2305 67.9285C96.7924 67.1867 97.3161 66.4179 97.9321 65.5138L97.9322 65.5136L97.9336 65.5115C98.1477 65.1972 98.373 64.8666 98.6148 64.515H67.8475C68.8068 59.4508 70.5516 54.9741 73.6242 51.0709C76.1128 47.9093 78.5389 44.7056 80.3532 41.0893C80.3949 41.0054 80.527 40.9704 80.527 40.9704C81.054 41.0155 81.5715 41.0694 82.0827 41.1226L82.0828 41.1226L82.0829 41.1226L82.083 41.1226L82.0832 41.1226L82.0833 41.1226L82.0834 41.1227L82.0835 41.1227L82.0836 41.1227C83.1568 41.2344 84.202 41.3431 85.2471 41.3621C88.7506 41.4251 91.9205 40.3548 94.7498 38.2704L94.8359 38.2071C97.546 36.2135 100.257 34.2197 103.648 33.4929C104.482 33.311 104.781 32.6465 104.941 31.9051C106.296 25.6027 105.622 19.797 100.895 14.9356C99.303 13.2988 97.7946 11.5711 96.3278 9.82235C95.2086 8.48633 94.3883 6.93348 94.0894 5.19176C93.7418 3.16325 92.4558 2.07905 90.6693 1.45651C87.9721 0.512209 85.1845 -0.0333891 82.3344 0.00158517C81.2569 0.0155749 80.1586 0.379307 79.1298 0.743039C78.671 0.90392 78.094 1.42154 78.0106 1.86921C77.6838 3.55497 77.4544 5.2687 77.3432 6.98244C77.2807 8.01768 77.9132 8.76612 78.9004 9.13685C79.1617 9.23681 79.423 9.33813 79.6846 9.43953L79.6863 9.44018C80.6139 9.79978 81.5443 10.1605 82.4873 10.4659C84.2113 11.0255 85.9839 10.8226 87.6871 10.5638C89.9046 14.2361 90.1549 15.6141 89.7586 21.7486C86.6096 21.4058 83.683 22.0004 81.1874 24.0219C80.9335 23.9003 80.6953 23.784 80.4666 23.6724L80.4665 23.6724L80.4662 23.6722L80.466 23.6721C80.0502 23.4691 79.6658 23.2815 79.2757 23.1056C76.377 21.7975 73.5616 21.8954 70.8644 23.6791C70.7476 23.7567 70.6294 23.8337 70.5109 23.9108C70.2557 24.0769 69.9991 24.2438 69.7522 24.4206C68.2993 25.4488 66.7352 26.0154 65.0947 24.9872C63.3151 23.882 61.7301 22.532 61.7301 20.1537C61.7301 18.9536 61.7533 17.7535 61.7764 16.5534L61.7764 16.5528C61.7953 15.5707 61.8142 14.5887 61.8205 13.6066C61.8274 11.4521 61.3895 9.37468 60.4928 7.42311C59.7976 5.91922 58.8174 4.65316 57.3159 3.86973C52.5402 1.37257 45.3941 2.87647 42.1894 7.21327C40.4377 9.59152 39.7981 12.3055 40.6532 15.2643C40.7783 15.698 40.6879 16.2576 40.535 16.7053C40.3946 17.1045 40.1769 17.4733 39.959 17.8422L39.9589 17.8423L39.9589 17.8423L39.9589 17.8424L39.9588 17.8425L39.9588 17.8425L39.9588 17.8426L39.9587 17.8426L39.9587 17.8427C39.8636 18.0036 39.7686 18.1646 39.6799 18.3281C39.1238 19.3563 39.242 19.6081 40.4307 19.8879C40.6323 19.9369 40.8408 19.9859 41.1189 20.0488C41.1123 20.15 41.1037 20.2464 41.0954 20.3392C41.0773 20.5415 41.0607 20.727 41.0702 20.9092C41.0805 21.1405 41.0683 21.39 41.0561 21.6406L41.0561 21.6407V21.6408V21.6409C41.027 22.2391 40.9975 22.8429 41.2718 23.2175C42.0274 24.2428 41.8429 25.1707 41.6351 26.2162L41.6333 26.2253C41.5699 26.5384 41.4407 26.8448 41.3113 27.1517C41.0014 27.887 40.6903 28.6249 41.2788 29.4639C41.3209 29.5274 41.2514 29.6752 41.1881 29.81C41.1677 29.8532 41.148 29.8951 41.1328 29.9325C40.7505 30.8209 40.9034 31.6882 41.2857 32.5206C41.7146 33.4572 42.1639 34.3869 42.6146 35.3194L42.6148 35.3198C42.8069 35.7174 42.9993 36.1154 43.1905 36.5147C43.7227 36.3036 44.2223 36.0095 44.7137 35.7203C45.1016 35.492 45.4843 35.2667 45.8737 35.0877C46.147 34.9616 46.3748 34.8597 46.5681 34.7732L46.5686 34.7729C47.5008 34.3557 47.6301 34.2978 48.1886 33.6258C48.3485 33.4328 48.5306 33.258 48.7159 33.0801C49.2559 32.562 49.8231 32.0176 49.9473 30.9188C51.0374 32.1329 51.2627 33.46 51.4769 34.7213L51.4769 34.7214V34.7214C51.5823 35.3422 51.685 35.9471 51.8868 36.5147C51.9344 36.5075 51.9812 36.5052 52.0249 36.5031H52.0249C52.1089 36.499 52.1817 36.4955 52.2274 36.4587C52.436 36.2768 52.6376 36.081 52.8113 35.8642C54.7995 33.416 55.9534 30.625 56.3914 27.4983C56.6138 25.9175 56.2732 24.7563 54.6813 24.1758C54.6278 24.1534 54.5887 24.0907 54.5381 24.01C54.5098 23.9647 54.4779 23.9138 54.438 23.861C54.9872 21.8675 55.0914 19.804 54.6396 17.7405C56.2384 16.0897 56.4053 15.4742 55.585 14.1452C55.1818 14.362 54.7717 14.5858 54.299 14.8446C53.9583 13.8933 54.0626 13.2079 54.9107 12.7602C55.6059 12.3895 56.44 12.4734 56.8571 13.1169C57.1699 13.5996 57.302 14.2361 57.3715 14.8237C57.4142 15.1575 57.3631 15.5043 57.3043 15.9041C57.2768 16.0906 57.2477 16.2887 57.2255 16.5024C58.164 15.4252 58.4421 14.334 58.1362 13.3268C57.6774 11.8369 55.9326 10.9555 54.2225 11.3612C52.5472 11.7599 51.9076 12.7882 52.1996 14.6068C52.2075 14.6702 52.2243 14.7313 52.2411 14.7927L52.2411 14.7927C52.2541 14.8398 52.267 14.887 52.2761 14.9356C52.6097 16.7962 52.2691 18.384 50.5104 19.4193C50.3188 19.5317 50.141 19.6672 49.9624 19.8033L49.9624 19.8033C49.83 19.9042 49.6971 20.0054 49.558 20.0978C49.1664 20.3597 48.7673 20.6113 48.3683 20.8627L48.3682 20.8628L48.3682 20.8628C47.4995 21.4103 46.6319 21.957 45.8459 22.6089C45.0396 23.2804 44.2749 23.7001 43.1974 23.6022C43.1418 22.567 43.5519 21.8115 44.2401 21.182C44.8764 20.6003 45.1995 20.3048 45.2775 19.9547C45.3581 19.5934 45.1774 19.1738 44.8102 18.3211C44.755 18.1962 44.7394 18.053 44.723 17.9036C44.7147 17.827 44.7061 17.7488 44.692 17.6706C45.9572 16.9431 46.4021 15.8309 46.0475 14.5159C45.5948 12.8637 44.1634 12.7712 42.711 12.6774ZM49.449 28.7158C49.2316 28.7426 49.1061 28.7632 49.0381 28.8368C48.9446 28.9382 48.96 29.14 48.995 29.5968C49.1052 29.3869 49.1975 29.2061 49.2835 29.038L49.284 29.037L49.2843 29.0363C49.3409 28.9256 49.3947 28.8203 49.449 28.7158ZM52.9434 20.9092C52.8603 23.9625 51.6932 26.5364 49.4972 28.6449C49.2882 27.4674 50.0983 26.6063 50.7676 26.0084C51.5564 25.3021 51.8053 24.4793 52.0705 23.6024L52.1023 23.4973C52.1718 23.267 52.2366 23.0358 52.3012 22.805L52.3012 22.805L52.3012 22.8049L52.3012 22.8049L52.3012 22.8049L52.3013 22.8048L52.3013 22.8048L52.3013 22.8048L52.3013 22.8048C52.482 22.1592 52.6618 21.5171 52.9434 20.9092ZM41.5326 18.003L41.5329 18.0044C41.6209 18.4111 41.7006 18.7797 41.8002 19.2304C41.2023 19.1465 40.8547 19.0975 40.3264 19.0206C40.6188 18.4566 40.8579 18.0001 41.1885 17.3686L41.1896 17.3665L41.3344 17.09C41.4096 17.4346 41.4725 17.7254 41.5316 17.9987L41.5318 17.9997L41.5326 18.003ZM75.6738 72.0767V96.7545C79.2106 97.2738 82.5567 97.7656 85.9009 98.2572L86.0037 98.2723C86.3374 96.041 86.1845 73.2938 85.8369 72.0767H75.6738ZM80.423 93.6397C80.1188 93.6115 79.8037 93.5822 79.4693 93.5508V75.8889H82.2916V93.8166C81.6636 93.7549 81.0676 93.6995 80.423 93.6397ZM15.5132 74.1096L15.5239 74.1199L15.529 74.1248L15.5397 74.1352L15.5461 74.1414L15.5483 74.1435C16.5848 75.1481 17.5907 76.123 18.6377 77.134L19.6672 76.1411C20.9956 74.8599 22.3241 73.5788 23.7888 72.1606V98.6711C23.091 98.8213 22.4236 98.9667 21.7214 99.1198L21.7104 99.1222C21.2059 99.2321 20.6833 99.3461 20.1184 99.4685C20.0607 98.1099 20.0695 96.8216 20.0781 95.5549V95.5546V95.5544V95.5542V95.5539V95.5537V95.5535V95.5533C20.0819 94.9878 20.0858 94.4267 20.0836 93.8656C20.0784 92.4386 20.0849 91.0117 20.0914 89.5847C20.0936 89.1091 20.0958 88.6335 20.0975 88.1578V82.3661C19.701 82.7061 19.3775 82.9815 19.0741 83.2399C18.9093 83.3801 18.7505 83.5153 18.589 83.6532C18.424 83.5062 18.2633 83.3645 18.0907 83.2125L18.0906 83.2124C17.8197 82.9737 17.5199 82.7095 17.1292 82.3591V100.119C16.3582 100.308 15.6394 100.48 14.9056 100.657L14.8899 100.661L14.8862 100.662L14.8851 100.662L14.8807 100.663L14.8747 100.664L14.8733 100.665L14.8651 100.667C14.4145 100.775 13.9579 100.885 13.4797 101V72.1396C14.1809 72.8183 14.8512 73.4679 15.5088 74.1053L15.5132 74.1096ZM29.5175 93.8023V72.1183C28.1341 72.1183 27.0149 72.1183 25.8193 72.1253V98.3C27.6927 98.0186 29.535 97.741 31.3719 97.4643L31.4092 97.4586L31.4807 97.4479L31.5245 97.4413C33.1058 97.203 34.6835 96.9653 36.2743 96.7262L36.2898 94.1007V94.1002V94.0997V94.0993V94.099V94.0986V94.0984C36.3339 86.676 36.3771 79.4021 36.3647 72.1113H32.6387C32.6104 75.7788 32.5803 79.4119 32.5502 83.041C32.5212 86.5411 32.4922 90.0375 32.4649 93.5575C31.997 93.5965 31.5726 93.6316 31.1615 93.6657C30.6136 93.711 30.0893 93.7544 29.5175 93.8023ZM73.5564 96.5164C72.0562 96.4073 70.573 96.2981 69.0898 96.189C67.1503 96.0463 65.2109 95.9036 63.2334 95.7609V72.2653C64.3387 71.9015 71.2276 71.8036 73.4243 72.1184C73.7858 73.3145 73.9248 94.313 73.5564 96.5164ZM69.7817 92.6273C70.1363 90.7247 70.0111 76.9028 69.6497 75.6787H66.9803V92.3684C67.5963 92.4287 68.1755 92.481 68.739 92.5319C69.091 92.5637 69.4369 92.595 69.7817 92.6273ZM38.2195 87.0033V96.5233C41.7718 96.2575 45.2128 96.0057 48.7719 95.7469C48.7719 94.7329 48.7673 93.7365 48.7627 92.7527C48.7514 90.3365 48.7405 87.9967 48.7997 85.6603C48.8275 84.4362 48.5008 83.7228 47.3538 83.2051C46.0868 82.6336 44.8638 81.9699 43.673 81.3238L43.6727 81.3236C43.1585 81.0446 42.6503 80.7688 42.1472 80.5051V75.6997H45.0529V79.4069H48.6538V72.0903H38.4281C38.4047 72.1984 38.3798 72.2939 38.357 72.3812C38.3119 72.5539 38.2752 72.6948 38.2752 72.8388C38.2624 73.8897 38.2562 74.9397 38.25 75.9895V75.9902C38.2393 77.7908 38.2287 79.5908 38.1848 81.3935C38.1639 82.2748 38.5741 82.6875 39.2901 83.0373C40.6719 83.7155 42.0371 84.424 43.344 85.1023L43.346 85.1033C43.9253 85.4039 44.4932 85.6986 45.0459 85.9821V92.3754C44.7185 92.4027 44.4079 92.4287 44.1034 92.4542L44.1031 92.4542C43.3927 92.5137 42.715 92.5705 41.9317 92.6342V86.6606C40.5761 86.7865 39.4361 86.8914 38.2195 87.0033ZM61.1238 72.0903V79.281H57.5299C57.5021 78.659 57.476 78.0613 57.45 77.4637L57.4496 77.4554C57.4236 76.8597 57.3977 76.2638 57.37 75.6437H54.5546V91.9697H57.3908V82.1419C58.5492 82.3324 59.4175 82.8866 60.264 83.4268L60.2641 83.4269L60.2643 83.4269L60.2645 83.4271C60.4744 83.561 60.683 83.6942 60.8944 83.8207C61.1029 83.9466 61.2002 84.4082 61.2072 84.709C61.2246 87.5992 61.2178 90.4845 61.2111 93.373V93.3744C61.2097 93.9529 61.2084 94.5315 61.2072 95.1104C61.2072 95.2073 61.163 95.3016 61.1095 95.4157C61.078 95.4827 61.0434 95.5566 61.0126 95.642H50.8008V72.0973C54.1894 72.0903 57.5434 72.0903 61.1121 72.0903H61.1238ZM91.7678 72.0557H88.1878C88.1878 81.072 88.1878 89.8785 88.2017 98.685C91.6775 99.4545 95.0211 100.196 98.5386 100.979C98.5386 100.355 98.5391 99.7424 98.5395 99.1385V99.1343V99.1337C98.5408 97.3577 98.542 95.6571 98.5317 93.9565C98.5317 93.7467 98.483 93.4669 98.344 93.341C98.1524 93.1699 97.9639 92.9947 97.7742 92.8184C96.9243 92.0284 96.0508 91.2166 94.7778 90.6619V95.943C94.2598 95.8368 93.7856 95.7384 93.3277 95.6435C92.821 95.5383 92.3344 95.4374 91.8304 95.3345C91.8061 91.4158 91.8026 87.5356 91.7991 83.6667V83.6639C91.7957 79.7921 91.7922 75.9318 91.7678 72.0557ZM50.2448 53.3862C50.6163 53.462 50.9911 53.5353 51.3674 53.6089L51.3675 53.6089C52.1035 53.7529 52.8456 53.8981 53.5815 54.0647C53.7453 54.1022 53.9098 54.1383 54.0744 54.1745C54.8315 54.3408 55.5902 54.5074 56.2926 54.8062C57.4604 55.2958 58.0513 56.2541 58.0443 57.779C56.498 56.7839 54.8637 56.5115 53.2352 56.2402C52.975 56.1968 52.7149 56.1535 52.4553 56.1072C50.7453 55.7994 50.203 55.065 50.2448 53.3862ZM53.0762 60.5978C54.7098 60.9965 56.3504 61.3882 58.0604 61.7939C58.1925 60.8007 57.6294 59.9963 56.684 59.5486C55.9859 59.2191 55.2108 59.0443 54.4468 58.872C54.3512 58.8504 54.2557 58.8289 54.1606 58.8071C53.45 58.646 52.7358 58.5139 52.0232 58.382C51.7459 58.3307 51.4689 58.2795 51.1923 58.2266C51.3105 59.8564 51.6025 60.2341 53.0762 60.5978Z" fill="white"/>
</svg>
