<svg width="467" height="448" viewBox="0 0 467 448" fill="none" xmlns="http://www.w3.org/2000/svg">
<path d="M56.8519 319.46C56.8519 320.183 56.8519 320.554 56.8519 321.278C56.8519 328.089 56.8519 331.495 56.8519 338.289C56.8519 339.013 56.8519 339.383 56.8519 340.107C56.8519 376.071 56.8519 412.036 56.8519 448C63.361 446.341 66.6244 445.547 73.1511 444.029C73.1864 412.653 73.2922 395.2 73.3451 363.824L80.1188 371.624L87.0512 363.242C86.9807 393.806 86.8572 410.43 86.7866 440.994C93.331 439.6 96.612 438.929 103.174 437.677C103.245 413.218 103.333 388.759 103.403 364.283C103.439 353.942 103.456 348.789 103.492 338.448C103.509 330.913 103.527 327.136 103.544 319.601L80.2423 342.542C80.2423 342.542 56.8519 319.601 56.8519 319.46Z" fill="url(#paint0_linear)"/>
<path d="M142.053 414.894C136.549 415.547 133.815 415.883 128.329 416.624C128.452 384.242 128.576 351.842 128.699 319.46C122.102 319.46 118.803 319.46 112.224 319.46C112.1 352.636 111.994 385.812 111.871 418.988C111.853 425.818 111.836 429.241 111.818 436.071C118.398 434.888 121.679 434.341 128.258 433.3C133.744 432.435 136.496 432.03 141.982 431.271C148.579 430.353 151.878 429.947 158.475 429.171C158.493 422.747 158.51 419.518 158.546 413.094C158.669 381.877 158.775 350.66 158.899 319.442C152.301 319.442 149.003 319.442 142.423 319.442C142.3 351.277 142.176 383.095 142.053 414.894Z" fill="url(#paint1_linear)"/>
<path d="M184.07 319.46C177.473 319.46 174.174 319.46 167.595 319.46C167.577 325.83 167.559 329.025 167.542 335.395C167.524 340.548 167.507 343.124 167.489 348.26C167.489 348.824 167.489 349.089 167.489 349.654C167.471 355.407 167.454 358.301 167.436 364.054C167.436 364.212 167.436 364.301 167.436 364.477C167.436 364.918 167.436 365.148 167.436 365.589C177.491 370.759 187.581 375.895 197.653 381.012C199.558 381.983 200.511 382.459 202.433 383.43C202.557 383.483 202.61 383.5 202.716 383.553C200.687 383.624 199.664 383.659 197.635 383.748C197.6 394.283 197.6 399.559 197.565 410.094C192.044 410.394 189.292 410.571 183.77 410.959C183.806 400.424 183.823 395.165 183.859 384.63C177.244 384.965 173.945 385.142 167.348 385.565C167.312 396.242 167.295 401.589 167.26 412.265C167.242 418.636 167.224 421.83 167.207 428.2C173.822 427.512 177.12 427.194 183.735 426.647C189.256 426.188 192.008 425.994 197.529 425.641C204.144 425.218 207.461 425.041 214.093 424.759C214.111 418.583 214.111 415.494 214.129 409.336C214.146 401.324 214.146 397.318 214.164 389.306C214.164 388.759 214.164 388.495 214.164 387.948C214.181 382.371 214.181 379.583 214.181 374.006C214.181 373.636 214.181 373.442 214.181 373.054C214.181 372.842 214.181 372.736 214.181 372.507C204.091 367.265 194.019 362.042 183.947 356.783C183.982 348.136 183.982 343.795 184.017 335.148C189.521 335.077 192.255 335.042 197.759 334.989C197.741 342.03 197.723 345.56 197.706 352.601C204.303 352.46 207.602 352.407 214.217 352.318C214.234 345.33 214.234 341.836 214.252 334.848C214.27 328.672 214.27 325.583 214.287 319.425C207.69 319.425 204.391 319.425 197.812 319.425C192.308 319.46 189.556 319.46 184.07 319.46Z" fill="url(#paint2_linear)"/>
<path d="M269.728 389.095C269.728 388.548 269.728 388.283 269.728 387.736C269.728 382.177 269.711 379.389 269.711 373.83C269.711 373.23 269.711 372.948 269.711 372.348C263.096 368.677 259.78 366.877 253.182 363.295C253.182 367.442 253.182 369.507 253.182 373.654C253.182 376.23 253.182 377.518 253.182 380.112C253.182 391.583 253.182 397.3 253.2 408.771C247.679 408.736 244.927 408.736 239.406 408.771C239.423 384.101 239.423 359.43 239.441 334.777C244.944 334.777 247.679 334.777 253.182 334.777C253.182 341.66 253.182 345.118 253.182 352.001C259.78 352.018 263.096 352.036 269.693 352.107C269.675 345.189 269.675 341.748 269.675 334.83C269.675 328.672 269.658 325.601 269.658 319.442C263.061 319.442 259.762 319.442 253.182 319.442C247.696 319.442 244.944 319.442 239.459 319.442C232.861 319.442 229.58 319.442 222.983 319.442C222.983 325.601 222.965 328.672 222.965 334.83C222.93 359.571 222.895 384.312 222.859 409.053C222.859 415.212 222.842 418.283 222.842 424.441C229.474 424.23 232.791 424.177 239.423 424.106C244.945 424.053 247.714 424.053 253.235 424.106C259.868 424.159 263.184 424.23 269.817 424.441C269.817 418.283 269.799 415.212 269.799 409.053C269.746 401.094 269.746 397.089 269.728 389.095Z" fill="url(#paint3_linear)"/>
<path d="M325.065 335.395C325.047 329.025 325.029 325.83 325.012 319.46C318.414 319.46 315.116 319.46 308.536 319.46C303.05 319.46 300.298 319.46 294.812 319.46C288.215 319.46 284.934 319.46 278.337 319.46C278.354 325.636 278.354 328.724 278.372 334.883C278.407 359.695 278.46 384.524 278.513 409.336C278.531 415.512 278.531 418.6 278.548 424.759C285.181 425.041 288.497 425.218 295.112 425.641C300.633 425.994 303.385 426.206 308.906 426.647C315.521 427.194 318.838 427.512 325.453 428.2C325.435 421.83 325.417 418.636 325.4 412.265C325.241 386.659 325.153 361.018 325.065 335.395ZM295.024 410.112C294.953 385.089 294.9 360.048 294.83 335.024C300.333 335.077 303.068 335.113 308.571 335.183C308.642 360.454 308.73 385.706 308.818 410.977C303.297 410.589 300.545 410.412 295.024 410.112Z" fill="url(#paint4_linear)"/>
<path d="M380.418 336.542C380.4 329.713 380.383 326.289 380.365 319.46C373.768 319.46 370.469 319.46 363.89 319.46C358.404 319.46 355.652 319.46 350.166 319.46C343.569 319.46 340.27 319.46 333.69 319.46C333.708 325.883 333.726 329.113 333.743 335.536C333.849 361.389 333.937 387.242 334.043 413.112C334.061 419.536 334.078 422.765 334.096 429.188C340.693 429.947 344.01 430.371 350.589 431.288C356.093 432.047 358.827 432.453 364.313 433.318C370.893 434.359 374.191 434.906 380.753 436.088C380.736 429.259 380.718 425.835 380.7 419.006C380.612 391.512 380.524 364.036 380.418 336.542ZM350.536 414.894C350.43 388.548 350.325 362.183 350.219 335.836C355.705 335.942 358.457 336.013 363.943 336.136C364.048 362.96 364.154 389.8 364.26 416.624C358.774 415.9 356.022 415.547 350.536 414.894Z" fill="url(#paint5_linear)"/>
<path d="M419.367 402.718C419.367 408.541 419.385 411.453 419.385 417.277C419.385 418.053 419.385 418.424 419.385 419.2C419.385 419.906 419.385 420.259 419.385 420.965C419.385 421.159 419.385 421.247 419.385 421.441C419.385 422.853 419.385 423.559 419.385 424.971C419.385 425.288 419.385 425.447 419.385 425.783C413.934 424.706 411.2 424.177 405.749 423.188C405.661 388.618 405.591 354.048 405.502 319.46C398.905 319.46 395.606 319.46 389.027 319.46C389.062 331.866 389.097 344.271 389.15 356.677C389.168 361.901 389.168 364.512 389.186 369.754C389.186 370.795 389.186 371.307 389.203 372.33C389.221 376.53 389.221 378.612 389.238 382.812C389.274 395.324 389.327 407.836 389.362 420.347C389.38 427.283 389.397 430.741 389.415 437.677C395.977 438.929 399.258 439.6 405.802 440.994C411.253 442.159 413.987 442.759 419.42 444.029C425.947 445.547 429.21 446.341 435.719 448C435.719 442.847 435.719 440.271 435.719 435.118C435.719 432.735 435.719 431.553 435.719 429.171C435.719 427.388 435.719 426.488 435.719 424.706C435.719 420.612 435.719 418.565 435.719 414.471C429.193 408.947 425.912 406.283 419.35 401.13C419.367 401.747 419.367 402.083 419.367 402.718Z" fill="url(#paint6_linear)"/>
<path d="M245.087 371.359L244.998 371.271L245.087 371.395V371.359Z" fill="url(#paint7_linear)"/>
<path d="M186.011 223.902C186.011 223.902 185.482 236.502 192.626 238.355C199.841 240.208 210.848 239.978 213.847 246.755C213.847 246.755 215.999 234.684 203.845 231.031C194.019 228.049 188.639 231.261 186.011 223.902Z" fill="url(#paint8_linear)"/>
<path d="M244.733 262.284C233.638 259.302 227.341 261.966 224.659 255.366C224.659 255.366 223.424 266.501 231.574 268.39C239.812 270.296 252.336 270.507 255.476 276.613C255.476 276.596 258.563 265.954 244.733 262.284Z" fill="url(#paint9_linear)"/>
<path d="M243.022 241.337C230.48 238.002 223.354 240.949 220.32 233.537C220.32 233.537 218.944 246.119 228.187 248.255C237.43 250.372 251.648 250.619 255.176 257.502C255.176 257.502 258.633 245.519 243.022 241.337Z" fill="url(#paint10_linear)"/>
<path d="M447.591 68.0446C419.12 39.7742 417.921 32.2919 414.587 18.9156C411.288 5.60979 385.358 2.4157 370.364 0.386309C355.388 -1.60779 345.315 4.60392 344.363 7.92154C343.446 11.2745 336.619 34.4801 345.827 39.3507C355.035 44.2036 372.675 51.5977 387.51 46.1801C387.51 46.1801 397.423 64.0211 397.512 70.9563C397.564 77.8563 395.183 90.2091 398.57 97.162C398.57 97.162 375.197 92.0091 358.422 107.291C358.422 107.291 340.2 94.0914 322.066 100.603C316.527 102.597 310.759 106.162 305.432 110.203C300.598 112.85 295.748 114.421 290.209 112.674C278.372 108.88 271.775 94.4973 271.775 94.4973C271.775 94.4973 271.51 85.6386 271.687 81.9856C272.745 60.5976 272.833 53.7682 269.27 41.0801C266.148 29.8214 260.433 23.1508 255.37 19.2509C236.742 7.53331 210 11.8039 195.465 22.1979C182.165 31.6743 178.831 42.1566 178.002 47.2565L178.09 47.2918C178.09 47.2918 177.208 55.7094 176.379 58.6917C175.532 61.6387 176.379 62.9623 177.825 66.6152C177.878 66.7564 177.949 66.9152 178.002 67.0916C178.002 67.0916 178.655 68.0975 179.325 70.2504C178.443 72.7034 176.908 77.1151 175.285 79.4092C173.574 81.8621 171.281 84.4386 172.375 86.2738C173.486 88.0738 174.739 88.1797 176.82 88.2503C178.143 88.3032 179.978 88.1974 180.824 88.6915C180.771 89.5738 180.683 90.4562 180.595 91.3738C180.648 92.0267 180.542 92.7503 179.942 93.4385C179.819 93.615 179.678 93.7561 179.537 93.8797C179.184 94.4091 178.602 95.6796 180.013 97.0385L183.541 98.9443C182.447 98.909 180.771 98.9796 180.066 99.7384C178.919 101.027 179.448 103.48 181.918 104.097C181.918 104.097 184.546 106.55 183.629 112.515C183.541 113.221 183.4 113.891 183.064 114.421C182.147 116.362 182.306 119.715 180.436 122.732C178.619 125.732 178.461 129.773 178.461 129.773L180.754 126.332C180.754 126.332 181.759 130.991 180.436 132.932C179.148 134.838 178.902 140.768 178.902 140.768L180.524 137.856C179.854 141.65 180.524 145.197 180.524 145.197L181.759 142.373C181.442 145.497 182.676 151.091 182.676 151.091L183.611 148.267C183.664 152.662 185.375 155.344 185.375 155.344L185.905 152.785C185.905 153.526 186.663 153.879 187.139 153.985C186.751 155.803 186.822 157.197 187.58 157.673L187.968 157.903L188.145 159.05L188.445 158.379C190.297 160.55 187.298 164.026 187.298 164.026C192.361 161.52 193.737 157.956 195.13 158.467C196.506 158.961 193.684 162.561 193.684 162.561C197.035 161.026 199.664 155.432 201.128 153.226C203.121 155.079 200.898 158.909 200.898 158.909C205.379 155.556 206.137 151.779 207.584 152.044C209.048 152.309 206.913 156.35 206.913 156.35C211.059 153.491 212.452 143.856 213.687 144.862C214.834 145.797 214.075 148.726 214.075 148.726C219.173 143.397 219.226 136.144 219.226 136.144C220.99 137.432 220.373 141.032 220.373 141.032C221.219 139.885 221.749 138.491 222.048 137.115C224.042 143.062 227.852 155.432 227.676 164.026C227.676 164.026 249.761 143.785 248.085 112.55C245.756 110.38 242.758 108.491 239.071 107.132C239.212 105.862 239.212 104.662 239.124 103.568L239.829 104.591C239.882 102.968 239.97 101.38 239.97 100.109C240.764 101.309 241.064 102.827 241.064 102.827C241.682 100.709 241.364 98.3267 240.835 96.3149C240.694 95.0267 240.517 93.6855 240.359 92.5208C241.682 93.5267 242.07 95.1149 242.07 95.1149C242.07 91.7267 241.223 89.2209 240.447 87.6679L240.217 86.2209C241.064 86.6974 241.752 87.4915 241.752 87.4915C242.14 84.1033 240.835 81.5974 239.988 80.2386C239.847 79.7092 239.776 79.0563 239.688 78.3327L241.064 77.5386C245.121 75.6504 249.037 66.2622 245.686 63.5446C242.352 60.8093 240.447 68.221 238.912 66.7563C237.818 65.7328 236.919 61.374 238.824 58.4447C239.353 57.827 240.147 57.2094 241.064 56.7153C241.911 56.2388 242.828 55.9741 243.604 55.7976L244.61 55.6741C247.609 55.4623 249.99 57.1211 251.436 59.0976C251.525 59.2388 255.141 65.6975 250.29 74.9092C250.29 74.9092 254.964 72.721 256.287 66.6681L255.282 66.9858C255.282 66.9858 257.187 63.474 256.287 59.3799L255.529 59.9623C255.529 59.9623 255.758 54.28 251.084 53.6094L250.995 54.88C250.995 54.88 250.766 51.1388 245.227 50.1153L246.603 51.7388C246.603 51.7388 243.975 49.3212 237.748 50.5565L239.459 51.2094C239.459 51.2094 234.837 50.38 231.009 54.6506L232.685 54.1212C232.685 54.1212 228.328 56.38 229.298 62.927C229.528 64.1093 229.686 65.1152 229.916 65.9269C230.304 68.3093 230.674 71.7504 230.304 75.0328C229.634 80.8562 225.012 84.8621 225.012 84.8621L225.488 83.6268L217.656 90.015L218.185 88.815L210.124 95.4149L210.882 94.0032L204.285 98.1502V97.1443C204.285 97.1443 203.879 97.3737 203.103 98.609C203.103 98.609 198.429 102.844 196.418 105.438L196.506 102.756L193.119 106.462L192.802 103.568L189.203 107.45L189.415 101.45L189.45 101.115C190.297 98.2032 192.131 94.3208 196.965 91.9385C204.673 88.1444 190.808 78.2092 197.282 77.2739C203.403 76.3563 208.889 54.7388 186.028 56.7153C185.446 54.0329 183.964 44.133 191.655 35.6272C200.722 25.6214 211.341 20.5567 230.198 21.3685C249.037 22.1979 258.422 32.2919 264.172 58.9741C267.594 81.4209 265.019 98.8208 265.019 98.8208C265.019 100.762 265.107 102.968 265.019 105.456C265.019 105.456 265.813 116.944 260.874 132.173C260.344 133.673 251.666 157.179 239.741 166.038C239.741 166.038 257.399 158.326 270.893 144.103C275.285 146.697 275.726 152.997 275.726 152.997C275.726 152.997 300.122 126.809 320.267 115.568C339.106 104.997 351.331 113.38 354.559 116.662C348.649 127.144 348.879 136.885 348.879 136.885C348.879 136.885 357.187 121.338 373.645 112.85C390.103 104.397 406.314 111.527 406.314 111.527C415.381 121.179 439.847 123.015 439.847 123.015C439.847 123.015 410.547 111.95 406.931 92.6797C403.315 73.3916 410.635 73.074 410.635 73.074C410.635 73.074 420.708 91.6914 421.237 98.5737C421.237 98.5737 421.996 74.7504 408.025 58.1976C393.948 41.6801 391.955 33.3155 391.955 33.3155C391.955 33.3155 367.965 40.0566 352.883 33.4037C352.883 33.4037 350.501 23.2214 355.705 11.698C355.705 11.698 376.961 9.45682 401.181 19.1803C401.181 19.1803 408.783 40.8507 424.324 60.4035C439.918 79.9915 461.914 90.3503 454.612 134.768C454.612 134.768 446.074 135.791 436.249 140.273C434.926 140.856 430.163 143.344 423.389 149.309C423.707 142.232 422.472 138.209 422.472 138.209C412.311 163.091 394.001 166.62 389.468 167.132L388.409 167.22C386.787 167.308 385.164 167.308 383.558 167.273C363.096 166.744 355.564 153.632 353.324 149.344L352.265 149.485C352.265 149.485 352.407 150.685 352.477 152.785C352.177 153.579 351.736 154.32 351.278 155.026C307.707 177.402 292.537 153.544 292.537 153.544C291.479 160.638 292.096 167.273 292.008 173.591C292.008 173.803 289.38 185.52 271.722 193.144C271.722 193.144 279.237 194.467 286.328 193.532C284.246 196.479 281.318 199.355 277.402 202.285C256.464 217.796 226.176 203.485 226.176 203.485C226.176 203.485 230.039 215.449 252.407 217.126C275.691 218.855 288.462 210.773 300.775 189.914C308.783 176.397 317.374 170.626 323.23 169.479L325.047 169.267C325.841 169.179 326.511 169.038 327.287 168.914C324.377 170.803 323.601 172.091 323.601 172.091C319.597 176.15 315.363 183.808 314.975 198.155C314.358 225.049 282.147 231.967 282.147 231.967C282.147 231.967 291.514 232.179 290.738 234.049C288.356 240.649 272.216 243.949 272.216 243.949C282.13 246.331 292.678 240.173 298.305 236.061L298.358 236.29L298.129 236.961C296.753 242.731 287.915 248.008 282.377 249.472C276.608 251.008 268.212 254.802 268.212 254.802C276.749 256.867 286.293 254.325 292.819 251.29L291.443 252.755C291.443 252.755 287.757 256.02 280.471 258.825L277.296 259.937C269.94 262.831 263.608 266.096 263.608 266.096C267.559 267.031 271.704 266.714 275.585 265.778C270.082 270.314 269.288 278.025 269.041 286.513H255.088C253.835 283.972 251.172 281.36 245.703 279.913C235.261 277.09 229.298 279.56 226.776 273.384C226.776 273.384 225.629 283.866 233.303 285.631C234.749 285.966 236.337 286.249 237.995 286.513H200.157C199.664 283.39 199.152 280.231 198.552 277.002L198.693 277.037C205.785 279.155 216.774 279.402 219.544 286.284C219.544 286.284 222.172 274.302 210.177 270.137C204.109 268.055 199.699 268.425 196.718 267.19C196.012 263.714 195.254 260.096 194.301 256.267L195.853 256.937C203.015 259.055 213.987 259.319 216.704 266.184C216.704 266.184 219.332 254.202 207.319 250.072C199.963 247.478 194.954 248.608 192.008 245.943C186.804 231.314 174.174 214.726 164.402 203.273C157.487 195.667 145.121 183.279 145.121 183.279C134.873 173.097 131.256 165.35 130.057 160.691C133.126 163.85 137.042 168.261 142.511 174.42C153.906 187.091 168.794 201.632 168.794 201.632C173.892 206.043 183.188 211.408 192.255 212.149C193.49 212.237 194.795 212.467 196.171 212.59C199.963 212.802 212.541 212.626 221.872 202.02C217.021 204.049 208.942 204.579 208.942 204.579C201.551 205.461 191.637 204.632 180.277 199.549C173.715 196.655 167.506 187.797 165.125 183.702C173.274 184.267 178.196 184.02 178.196 184.02C167.189 180.226 157.963 173.273 151.207 166.85C147.344 162.526 138.753 154.162 131.662 153.297C124.5 152.414 120.443 153.95 120.443 153.95C119.35 158.697 115.381 173.291 95.677 179.008C92.6782 179.855 89.5912 180.508 86.5219 180.861C86.222 180.897 58.5805 182.661 50.131 154.567C50.131 154.567 46.4443 161.609 46.0738 168.738C41.7521 167.008 38.9121 166.373 37.9243 166.197C27.2345 164.397 18.7674 165.526 18.7674 165.526C0.47497 124.479 19.085 108.862 29.2455 85.9562C39.3178 63.1034 41.1347 40.1978 41.1347 40.1978C62.2143 24.6861 83.2056 21.4744 83.2056 21.4744C91.2494 31.2861 91.514 41.733 91.514 41.733C78.6193 52.0035 53.7119 51.5624 53.7119 51.5624C53.7119 51.5624 53.853 60.1388 44.4686 79.7092C35.0842 99.2267 41.9285 122.097 41.9285 122.097C40.6408 115.285 45.7034 94.7444 45.7034 94.7444C45.7034 94.7444 52.8652 93.2444 54.2411 112.797C55.617 132.35 30.1098 150.491 30.1098 150.491C30.1098 150.491 53.3414 142.515 59.5506 130.885C59.5506 130.885 73.4684 119.874 91.514 123.897C109.612 127.903 121.607 140.856 121.607 140.856C121.607 140.856 119.314 131.079 110.635 122.362L111.076 121.603C113.07 118.656 121.696 108.085 140.376 111.35C148.614 112.797 160.697 119.238 172.375 126.668C172.604 121.162 174.086 115.885 174.844 113.45C165.777 107.715 150.713 100.074 138.312 98.962C119.173 97.2855 104.867 114.668 104.867 114.668C84.7932 104.133 63.4138 115.056 63.4138 115.056C64.9484 107.432 59.4625 96.0855 57.7867 89.3973C56.1109 82.7092 61.2617 62.8917 61.2617 62.8917C76.9258 64.3917 92.0784 52.7624 99.7694 45.7565C107.46 38.7154 95.0066 17.9803 93.2427 14.9803C91.5316 11.998 80.1716 8.53918 66.1832 14.3097C52.2654 20.045 27.9401 29.6802 28.0813 43.4448C28.2577 57.1741 29.0162 64.7093 8.65983 99.2796C-11.7494 133.85 9.71822 175.179 14.2517 178.85C18.7851 182.555 23.7242 174.35 61.3852 190.038C93.1721 203.291 120.761 188.238 125.682 185.273C128.54 188.838 132.773 192.967 138.877 197.52L138.93 197.644C140.553 198.932 142.087 200.114 143.551 201.173C149.725 206.008 154.506 210.173 158.139 213.579C158.139 213.579 166.801 220.373 174.527 233.449C174.544 233.484 174.58 233.52 174.597 233.573V233.59C179.978 242.396 187.739 259.761 187.739 286.602H44.645L55.2113 303.049H424.412L435.755 286.602H298.852C303.227 264.119 311.006 243.967 324.518 226.902C335.172 213.438 348.296 196.602 355.247 180.702C355.247 180.702 389.344 192.332 419.561 169.303C452.001 144.526 458.827 151.214 462.302 146.503C465.813 141.773 476.062 96.3502 447.591 68.0446ZM183.329 85.1444C183.329 85.1974 183.329 85.2327 183.311 85.2856C183.311 85.3033 183.294 85.3209 183.294 85.3385C183.294 85.3562 183.294 85.3738 183.276 85.4091C183.259 85.4268 183.259 85.4444 183.241 85.4621C182.906 86.1503 182.147 86.0268 181.512 85.7797C181.353 85.7091 181.195 85.6385 181.054 85.568C180.771 85.4621 180.383 85.3386 179.925 85.2856C179.219 85.215 178.778 85.3562 178.231 85.3562H178.196C178.125 85.3562 177.914 85.3562 177.684 85.2856C177.649 85.2856 177.614 85.2856 177.579 85.268C177.526 85.2503 177.508 85.2327 177.473 85.215C177.155 85.0739 176.855 84.8268 176.855 84.2974C176.855 82.8327 178.531 80.9092 179.537 78.5268C180.242 76.9739 181.124 75.721 181.794 74.7857C182.006 74.521 182.147 74.2916 182.288 74.0445C182.341 73.9563 182.377 73.9034 182.429 73.8328C182.429 73.7975 182.465 73.7798 182.465 73.7445C182.5 73.7798 182.5 73.7975 182.5 73.8328C182.465 74.1504 182.412 74.9269 182.359 75.8622C182.324 76.4445 182.306 77.0974 182.306 77.7504C182.253 79.7268 182.359 81.8445 182.923 82.7621C183.329 83.4327 183.505 84.1386 183.488 84.7033C183.417 84.8444 183.364 84.9856 183.329 85.1444ZM214.675 124.25C214.675 124.25 215.645 125.274 215.875 127.338C215.875 127.338 218.944 122.044 218.732 118.091C218.732 118.091 220.108 119.238 220.408 121.179C220.408 121.179 221.502 117.262 221.325 115.232L221.943 117.474C221.943 117.474 222.948 114.032 223.089 112.356C223.089 112.356 224.412 113.821 224.8 115.515L226.423 112.18C228.875 106.321 230.727 97.8679 230.727 97.6914L230.498 96.5973L231.256 97.2502C231.256 97.2502 231.256 95.4326 230.674 94.4267L231.521 94.9914L230.868 93.3503L231.574 93.615C231.574 93.615 231.256 92.4679 231.256 91.5856L232.438 92.6797L232.826 88.3209C232.826 88.3209 234.114 91.0032 233.973 96.0679L233.444 95.1326C233.444 95.1326 233.92 98.4679 233.126 101.133L232.456 99.3149C232.456 99.3149 232.456 99.8973 232.191 100.727C232.191 100.727 230.604 112.356 224.13 121.056L223.46 116.309C223.46 116.309 221.996 125.026 218.45 128.45C218.45 128.45 219.685 125.856 219.156 123.297C219.156 123.297 217.162 131.185 212.682 135.526C212.646 135.456 215.028 130.956 214.675 124.25Z" fill="url(#paint11_linear)"/>
<defs>
<linearGradient id="paint0_linear" x1="409.261" y1="3.88217e-06" x2="51.2748" y2="446.443" gradientUnits="userSpaceOnUse">
<stop stop-color="#362A00" stop-opacity="0"/>
<stop offset="0.155665" stop-color="#2D2300" stop-opacity="0.56"/>
<stop offset="0.296292" stop-color="#624D02"/>
<stop offset="0.494212" stop-color="#FFC53F"/>
<stop offset="0.739009" stop-color="#624D02" stop-opacity="0.54"/>
<stop offset="1" stop-color="#2D2300" stop-opacity="0"/>
</linearGradient>
<linearGradient id="paint1_linear" x1="409.261" y1="3.88217e-06" x2="51.2748" y2="446.443" gradientUnits="userSpaceOnUse">
<stop stop-color="#362A00" stop-opacity="0"/>
<stop offset="0.155665" stop-color="#2D2300" stop-opacity="0.56"/>
<stop offset="0.296292" stop-color="#624D02"/>
<stop offset="0.494212" stop-color="#FFC53F"/>
<stop offset="0.739009" stop-color="#624D02" stop-opacity="0.54"/>
<stop offset="1" stop-color="#2D2300" stop-opacity="0"/>
</linearGradient>
<linearGradient id="paint2_linear" x1="409.261" y1="3.88217e-06" x2="51.2748" y2="446.443" gradientUnits="userSpaceOnUse">
<stop stop-color="#362A00" stop-opacity="0"/>
<stop offset="0.155665" stop-color="#2D2300" stop-opacity="0.56"/>
<stop offset="0.296292" stop-color="#624D02"/>
<stop offset="0.494212" stop-color="#FFC53F"/>
<stop offset="0.739009" stop-color="#624D02" stop-opacity="0.54"/>
<stop offset="1" stop-color="#2D2300" stop-opacity="0"/>
</linearGradient>
<linearGradient id="paint3_linear" x1="409.261" y1="3.88217e-06" x2="51.2748" y2="446.443" gradientUnits="userSpaceOnUse">
<stop stop-color="#362A00" stop-opacity="0"/>
<stop offset="0.155665" stop-color="#2D2300" stop-opacity="0.56"/>
<stop offset="0.296292" stop-color="#624D02"/>
<stop offset="0.494212" stop-color="#FFC53F"/>
<stop offset="0.739009" stop-color="#624D02" stop-opacity="0.54"/>
<stop offset="1" stop-color="#2D2300" stop-opacity="0"/>
</linearGradient>
<linearGradient id="paint4_linear" x1="409.261" y1="3.88217e-06" x2="51.2748" y2="446.443" gradientUnits="userSpaceOnUse">
<stop stop-color="#362A00" stop-opacity="0"/>
<stop offset="0.155665" stop-color="#2D2300" stop-opacity="0.56"/>
<stop offset="0.296292" stop-color="#624D02"/>
<stop offset="0.494212" stop-color="#FFC53F"/>
<stop offset="0.739009" stop-color="#624D02" stop-opacity="0.54"/>
<stop offset="1" stop-color="#2D2300" stop-opacity="0"/>
</linearGradient>
<linearGradient id="paint5_linear" x1="409.261" y1="3.88217e-06" x2="51.2748" y2="446.443" gradientUnits="userSpaceOnUse">
<stop stop-color="#362A00" stop-opacity="0"/>
<stop offset="0.155665" stop-color="#2D2300" stop-opacity="0.56"/>
<stop offset="0.296292" stop-color="#624D02"/>
<stop offset="0.494212" stop-color="#FFC53F"/>
<stop offset="0.739009" stop-color="#624D02" stop-opacity="0.54"/>
<stop offset="1" stop-color="#2D2300" stop-opacity="0"/>
</linearGradient>
<linearGradient id="paint6_linear" x1="409.261" y1="3.88217e-06" x2="51.2748" y2="446.443" gradientUnits="userSpaceOnUse">
<stop stop-color="#362A00" stop-opacity="0"/>
<stop offset="0.155665" stop-color="#2D2300" stop-opacity="0.56"/>
<stop offset="0.296292" stop-color="#624D02"/>
<stop offset="0.494212" stop-color="#FFC53F"/>
<stop offset="0.739009" stop-color="#624D02" stop-opacity="0.54"/>
<stop offset="1" stop-color="#2D2300" stop-opacity="0"/>
</linearGradient>
<linearGradient id="paint7_linear" x1="409.261" y1="3.88217e-06" x2="51.2748" y2="446.443" gradientUnits="userSpaceOnUse">
<stop stop-color="#362A00" stop-opacity="0"/>
<stop offset="0.155665" stop-color="#2D2300" stop-opacity="0.56"/>
<stop offset="0.296292" stop-color="#624D02"/>
<stop offset="0.494212" stop-color="#FFC53F"/>
<stop offset="0.739009" stop-color="#624D02" stop-opacity="0.54"/>
<stop offset="1" stop-color="#2D2300" stop-opacity="0"/>
</linearGradient>
<linearGradient id="paint8_linear" x1="409.261" y1="3.88217e-06" x2="51.2748" y2="446.443" gradientUnits="userSpaceOnUse">
<stop stop-color="#362A00" stop-opacity="0"/>
<stop offset="0.155665" stop-color="#2D2300" stop-opacity="0.56"/>
<stop offset="0.296292" stop-color="#624D02"/>
<stop offset="0.494212" stop-color="#FFC53F"/>
<stop offset="0.739009" stop-color="#624D02" stop-opacity="0.54"/>
<stop offset="1" stop-color="#2D2300" stop-opacity="0"/>
</linearGradient>
<linearGradient id="paint9_linear" x1="409.261" y1="3.88217e-06" x2="51.2748" y2="446.443" gradientUnits="userSpaceOnUse">
<stop stop-color="#362A00" stop-opacity="0"/>
<stop offset="0.155665" stop-color="#2D2300" stop-opacity="0.56"/>
<stop offset="0.296292" stop-color="#624D02"/>
<stop offset="0.494212" stop-color="#FFC53F"/>
<stop offset="0.739009" stop-color="#624D02" stop-opacity="0.54"/>
<stop offset="1" stop-color="#2D2300" stop-opacity="0"/>
</linearGradient>
<linearGradient id="paint10_linear" x1="409.261" y1="3.88217e-06" x2="51.2748" y2="446.443" gradientUnits="userSpaceOnUse">
<stop stop-color="#362A00" stop-opacity="0"/>
<stop offset="0.155665" stop-color="#2D2300" stop-opacity="0.56"/>
<stop offset="0.296292" stop-color="#624D02"/>
<stop offset="0.494212" stop-color="#FFC53F"/>
<stop offset="0.739009" stop-color="#624D02" stop-opacity="0.54"/>
<stop offset="1" stop-color="#2D2300" stop-opacity="0"/>
</linearGradient>
<linearGradient id="paint11_linear" x1="409.261" y1="3.88217e-06" x2="51.2748" y2="446.443" gradientUnits="userSpaceOnUse">
<stop stop-color="#362A00" stop-opacity="0"/>
<stop offset="0.155665" stop-color="#2D2300" stop-opacity="0.56"/>
<stop offset="0.296292" stop-color="#624D02"/>
<stop offset="0.494212" stop-color="#FFC53F"/>
<stop offset="0.739009" stop-color="#624D02" stop-opacity="0.54"/>
<stop offset="1" stop-color="#2D2300" stop-opacity="0"/>
</linearGradient>
</defs>
</svg>
